<?xml version="1.0" encoding="UTF-8"?>
<svg width="569px" height="588px" viewBox="0 0 569 588" version="1.1" xmlns="http://www.w3.org/2000/svg" xmlns:xlink="http://www.w3.org/1999/xlink">
    <!-- Generator: Sketch 49.1 (51147) - http://www.bohemiancoding.com/sketch -->
    <title>hero__grasshopper</title>
    <desc>Created with Sketch.</desc>
    <defs></defs>
    <g id="Page-1" stroke="none" stroke-width="1" fill="none" fill-rule="evenodd">
        <g id="illy/grasshopper" fill-rule="nonzero">
            <path d="M61.76,261.72 L18.56,261.59 C8.55812318,261.59 0.45,253.481877 0.45,243.48 C0.45,233.478123 8.55812318,225.37 18.56,225.37 L402.8,225.47 L402.8,228.47 L18.56,228.36 C10.3800398,228.570627 3.85842631,235.262329 3.85842631,243.445 C3.85842631,251.627671 10.3800398,258.319373 18.56,258.53 L60.63,258.66 L67.16,253.05 L69.16,255.35 L61.76,261.72 Z" id="Shape" fill="#03324B"></path>
            <path d="M61.76,217.28 L18.56,217.15 C11.2335054,217.139026 4.63622528,212.712393 1.84853325,205.936966 C-0.939158776,199.161538 0.632627337,191.373813 5.83,186.21 C9.21088135,182.815463 13.809072,180.914254 18.6,180.93 L427.19,181.04 L427.19,184.04 L18.64,184 C10.311546,184 3.56,190.751546 3.56,199.08 C3.56,207.408454 10.311546,214.16 18.64,214.16 L60.71,214.29 L67.24,208.68 L69.24,210.98 L61.76,217.28 Z" id="Shape" fill="#03324B"></path>
            <path d="M568.58,441.25 C498.81,443 432,400.81 404.92,331.14 C377.84,261.47 398.8,185.19 451.51,139.46 L568.58,441.25 Z" id="Shape" fill="#3BC53E"></path>
            <polygon id="Shape" fill="#03324B" points="446.4 587.25 432.92 587.23 443.98 467.95 435.04 305.96 438.06 305.79 447.02 468.01 436.24 584.2 446.41 584.23"></polygon>
            <polygon id="Shape" fill="#03324B" points="421.98 587.2 408.5 587.17 408.51 584.14 418.68 584.16 408.41 467.92 418.08 305.75 421.11 305.93 411.45 467.88"></polygon>
            <path d="M428.2,130.4 L419.3,9 C418.974152,4.581722 422.291722,0.735848002 426.71,0.41 C431.128278,0.0841519976 434.974152,3.401722 435.3,7.82 L432.3,8.05 C432.098416,5.28857625 429.696424,3.21341607 426.935,3.415 C424.173576,3.61658393 422.098416,6.01857625 422.3,8.78 L431.2,130.21 L428.2,130.4 Z" id="Shape" fill="#03324B"></path>
            <path d="M421.61,130.89 L412.71,9.45 C412.569,7.42434521 411.216935,5.68513068 409.288615,5.04893866 C407.360295,4.41274663 405.238722,5.00593711 403.92,6.55 C403.048782,7.55421637 402.613369,8.86405364 402.71,10.19 L399.71,10.41 C399.499213,7.55187503 400.829229,4.79840508 403.199045,3.18679581 C405.56886,1.57518654 408.618443,1.35027978 411.199045,2.59679576 C413.779647,3.84331173 415.499214,6.37187497 415.71,9.23 L424.61,130.66 L421.61,130.89 Z" id="Shape" fill="#03324B"></path>
            <path d="M419.84,324.12 L433.51,324.12 C449.98,324.12 463.07,309.35 462.13,291.78 L454,141.19 L400.13,141.07 L391.36,291.65 C390.34,309.22 403.37,324.08 419.84,324.12 Z" id="Shape" fill="#C0FA96"></path>
            <path d="M424.14,161.32 L364.9,132.67 C363.992812,132.229523 363.494143,131.235032 363.683809,130.244559 C363.873474,129.254086 364.704262,128.514172 365.71,128.44 L486.17,119.61 C487.176254,119.538351 488.105287,120.151159 488.435518,121.104378 C488.765749,122.057598 488.414922,123.113797 487.58,123.68 L433.15,160.68 C430.474727,162.482009 427.043128,162.725763 424.14,161.32 Z" id="Shape" fill="#3BC53E"></path>
            <circle id="Oval" fill="#FFFFFF" cx="481.21" cy="124.4" r="15.43"></circle>
            <circle id="Oval" fill="#022434" cx="481.21" cy="124.4" r="3.31"></circle>
            <circle id="Oval" fill="#FFFFFF" cx="371.32" cy="132.45" r="15.43"></circle>
            <circle id="Oval" fill="#022434" cx="371.32" cy="132.45" r="3.31"></circle>
            <path d="M426.21,151.59 C413.955026,151.575623 403.785165,142.112245 402.89,129.89 L405.44,129.7 C406.282234,141.190284 416.279716,149.822234 427.77,148.98 C439.260284,148.137766 447.892234,138.140284 447.05,126.65 L449.59,126.46 C450.542223,139.340066 440.879201,150.556153 428,151.52 C427.37,151.57 426.79,151.59 426.21,151.59 Z" id="Shape" fill="#022434"></path>
            <path d="M507,261.94 L447.45,261.81 L441.45,254.18 L443.84,252.32 L448.84,258.79 L506.92,258.91 C515.248454,258.91 522,252.158454 522,243.83 C522,235.501546 515.248454,228.75 506.92,228.75 L458.58,228.58 L458.42,225.58 L506.92,225.75 C516.921877,225.75 525.03,233.858123 525.03,243.86 C525.03,253.861877 516.921877,261.97 506.92,261.97 L507,261.94 Z" id="Shape" fill="#03324B"></path>
            <path d="M508.11,217.27 L444.11,217.13 L438.2,209.49 L440.6,207.64 L445.6,214.1 L508.06,214.24 C516.388454,214.24 523.14,207.488454 523.14,199.16 C523.14,190.831546 516.388454,184.08 508.06,184.08 L456.24,183.96 L456.07,180.96 L508.07,181.07 C518.071877,181.07 526.18,189.178123 526.18,199.18 C526.18,209.181877 518.071877,217.29 508.07,217.29 L508.11,217.27 Z" id="Shape" fill="#03324B"></path>
            <polygon id="Shape" fill="#03324B" points="53.67 253.08 47.14 258.68 36.75 258.65 36.75 261.68 48.26 261.72 55.64 255.38"></polygon>
            <polygon id="Shape" fill="#03324B" points="36.75 217.25 48.25 217.28 55.64 210.94 53.67 208.64 47.14 214.25 36.75 214.22"></polygon>
        </g>
    </g>
</svg>