<?xml version="1.0" encoding="UTF-8"?>
<svg width="272px" height="367px" viewBox="0 0 272 367" version="1.1" xmlns="http://www.w3.org/2000/svg" xmlns:xlink="http://www.w3.org/1999/xlink">
    <!-- Generator: Sketch 49.1 (51147) - http://www.bohemiancoding.com/sketch -->
    <title>hero__tree-dark</title>
    <desc>Created with Sketch.</desc>
    <defs></defs>
    <g id="Page-1" stroke="none" stroke-width="1" fill="none" fill-rule="evenodd">
        <g id="illy/dark-tree" fill-rule="nonzero">
            <path d="M4.07,97.07 C31.76,-12.93 196.67,-33.33 252.83,59.38 C284.54,111.73 275.47,187.98 232.5,230.17 C208.83,253.41 176.91,266.17 144.8,267.69 C103.58,269.58 61.42,252.47 33.53,219.96 C5.64,187.45 -6.66,139.68 4.07,97.07 Z" id="Shape" fill="#45C14E"></path>
            <polygon id="Shape" fill="#C1F89A" points="214.1 162.37 145.54 188.96 144.7 145.51 216.39 117.7 214.1 111.79 144.57 138.76 142.86 51.09 136.52 51.09 134.81 138.76 65.27 111.79 62.98 117.7 134.68 145.51 133.83 188.96 65.27 162.37 62.98 168.28 133.7 195.71 130.37 366.32 149 366.32 145.68 195.71 216.39 168.28"></polygon>
        </g>
    </g>
</svg>