<?xml version="1.0" encoding="UTF-8"?>
<svg width="166px" height="366px" viewBox="0 0 166 366" version="1.1" xmlns="http://www.w3.org/2000/svg" xmlns:xlink="http://www.w3.org/1999/xlink">
    <!-- Generator: Sketch 49.1 (51147) - http://www.bohemiancoding.com/sketch -->
    <title>hero__tree-skinny</title>
    <desc>Created with Sketch.</desc>
    <defs></defs>
    <g id="Page-1" stroke="none" stroke-width="1" fill="none" fill-rule="evenodd">
        <g id="illy/light-skinny-tree" fill-rule="nonzero">
            <path d="M121.48,129.47 C111.264329,124.813831 105.336719,113.984543 106.92,102.87 C110.775596,75.5266594 93.1640968,49.7487649 66.29,43.4 C60.0263304,42.002766 55.7561927,36.1953787 56.29,29.8 C57.4936512,17.7960589 50.4983031,6.47626449 39.2237301,2.18355192 C27.949157,-2.10916064 15.1966918,1.69179594 8.1120525,11.4565931 C1.02741319,21.2213903 1.37088218,34.5238213 8.95,43.91 C13.982877,49.9203748 14.4511872,58.5291392 10.1,65.05 C-5.53565926,87.6920438 -1.41045859,118.507682 19.63,136.24 C27.2207682,142.517358 29.3148859,153.285311 24.63,161.95 C14.3296029,180.716161 12.5392913,202.989529 19.71,223.16 C33.29,261.48 75.52,282.22 114.13,269.47 C143.594916,259.762934 164.074874,232.958282 165.696912,201.978007 C167.318951,170.997733 149.750126,142.200955 121.46,129.47 L121.48,129.47 Z" id="Shape" fill="#C1F89A"></path>
            <path d="M125.73,364.48 C123.6,348.7 121.09,333.17 118.41,317.58 C115.73,301.99 112.8,286.5 109.68,271 C103.41,240.06 96.3,209.29 88.11,178.8 C79.92,148.31 70.65,118.1 59.72,88.47 C48.79,58.84 36.14,29.79 20.54,2.3 L18.1,3.66 C32.94,31.32 44.8,60.48 54.95,90.16 C65.1,119.84 73.59,150.11 81.01,180.61 C88.43,211.11 94.76,241.88 100.25,272.79 C102.99,288.236667 105.513333,303.723333 107.82,319.25 C110.1,334.75 112.23,350.36 113.94,365.82 L125.73,364.48 Z" id="Shape" fill="#45C14E"></path>
        </g>
    </g>
</svg>