<svg width="122" height="32" viewBox="0 0 122 32" fill="none" xmlns="http://www.w3.org/2000/svg">
<path opacity="0.8" fill-rule="evenodd" clip-rule="evenodd" d="M27.9552 22.2455C27.9552 27.5109 23.6227 31.7793 18.2784 31.7793H0V25.4234H18.2784C20.0599 25.4234 21.504 24.0006 21.504 22.2455C21.504 20.4904 20.0599 19.0676 18.2784 19.0676H11.8272V12.7117H18.2784C20.0599 12.7117 21.504 11.2889 21.504 9.53379C21.504 7.77867 20.0599 6.35586 18.2784 6.35586H0V0H18.2784C23.6227 0 27.9552 4.26842 27.9552 9.53379C27.9552 11.9756 27.0235 14.2029 25.4912 15.8897C27.0235 17.5764 27.9552 19.8037 27.9552 22.2455Z" fill="#8B93A7"/>
<path opacity="0.12" d="M0 25.4234H15.6993C12.3645 29.2829 7.05523 31.7793 1.0752 31.7793C0.714261 31.7793 0.355765 31.7702 0 31.7523V25.4234ZM18.988 19.0676H12.9024V12.7117H18.988C19.2277 13.7385 19.3536 14.8013 19.3536 15.8897C19.3536 16.978 19.2277 18.0408 18.988 19.0676ZM15.6993 6.35586H0V0.0270345C0.355765 0.00909456 0.714261 0 1.0752 0C7.05523 0 12.3645 2.49643 15.6993 6.35586Z" fill="black"/>
<path d="M0 0C8.90725 0 16.128 7.11404 16.128 15.8897C16.128 24.6653 8.90725 31.7793 0 31.7793V25.4234C5.34435 25.4234 9.6768 21.155 9.6768 15.8897C9.6768 10.6243 5.34435 6.35586 0 6.35586V0Z" fill="#616B84"/>
<path d="M55.1255 16.6661C55.1255 18.0094 54.8763 19.1685 54.378 20.1434C53.8797 21.1184 53.2225 21.92 52.4065 22.5483C51.5904 23.1766 50.6696 23.6388 49.6441 23.9349C48.6186 24.2309 47.5787 24.379 46.5243 24.379H40.8047V9.03994H46.351C47.4343 9.03994 48.5031 9.16632 49.5575 9.41908C50.6119 9.67184 51.5507 10.0907 52.374 10.6757C53.1973 11.2606 53.8617 12.0442 54.3672 13.0264C54.8727 14.0085 55.1255 15.2218 55.1255 16.6661ZM51.269 16.6661C51.269 15.7995 51.1282 15.081 50.8466 14.5104C50.5649 13.9399 50.1894 13.4849 49.72 13.1455C49.2506 12.8061 48.7161 12.5642 48.1167 12.4197C47.5173 12.2753 46.8999 12.2031 46.2644 12.2031H44.4228V21.1725H46.1777C46.8421 21.1725 47.4812 21.0967 48.0951 20.945C48.7089 20.7934 49.2506 20.5442 49.72 20.1976C50.1894 19.8509 50.5649 19.3887 50.8466 18.811C51.1282 18.2333 51.269 17.5183 51.269 16.6661ZM64.8099 17.7494C64.8099 17.1861 64.6329 16.7022 64.2791 16.2978C63.9252 15.8934 63.3944 15.6912 62.6867 15.6912C62.34 15.6912 62.0223 15.7454 61.7334 15.8537C61.4445 15.962 61.1918 16.1101 60.9751 16.2978C60.7585 16.4856 60.5851 16.7059 60.4551 16.9586C60.3252 17.2114 60.2529 17.475 60.2385 17.7494H64.8099ZM68.0813 19.1143V19.5476C68.0813 19.6921 68.0741 19.8293 68.0597 19.9593H60.2385C60.2674 20.2626 60.3577 20.537 60.5093 20.7825C60.661 21.0281 60.856 21.2411 61.0943 21.4217C61.3326 21.6022 61.5998 21.743 61.8959 21.8441C62.192 21.9453 62.4989 21.9958 62.8167 21.9958C63.38 21.9958 63.8566 21.8911 64.2466 21.6817C64.6366 21.4722 64.9543 21.2014 65.1999 20.8692L67.6697 22.4291C67.1642 23.1657 66.4962 23.7326 65.6657 24.1298C64.8352 24.527 63.8711 24.7256 62.7733 24.7256C61.9645 24.7256 61.199 24.5993 60.4768 24.3465C59.7546 24.0937 59.1227 23.7254 58.5811 23.2416C58.0395 22.7577 57.6134 22.1619 57.3028 21.4542C56.9923 20.7464 56.837 19.9376 56.837 19.0277C56.837 18.1466 56.9887 17.3486 57.292 16.6336C57.5953 15.9187 58.007 15.3121 58.5269 14.8137C59.0469 14.3154 59.6607 13.9291 60.3685 13.6547C61.0762 13.3802 61.8417 13.243 62.665 13.243C63.4594 13.243 64.1888 13.3766 64.8532 13.6438C65.5176 13.911 66.0881 14.2974 66.5648 14.8029C67.0414 15.3084 67.4133 15.9223 67.6805 16.6445C67.9477 17.3666 68.0813 18.1899 68.0813 19.1143ZM82.4455 19.9159C82.4455 20.7537 82.2794 21.4578 81.9472 22.0283C81.615 22.5988 81.1744 23.0574 80.6256 23.4041C80.0767 23.7507 79.452 23.9998 78.7515 24.1515C78.051 24.3032 77.3324 24.379 76.5958 24.379H70.4862V9.03994H76.5958C77.188 9.03994 77.7946 9.10132 78.4157 9.22409C79.0368 9.34686 79.6001 9.55629 80.1056 9.85239C80.6111 10.1485 81.0228 10.5493 81.3405 11.0548C81.6583 11.5603 81.8172 12.2031 81.8172 12.983C81.8172 13.8352 81.5861 14.5393 81.1239 15.0954C80.6617 15.6515 80.0551 16.0523 79.304 16.2978V16.3412C79.7373 16.4134 80.1453 16.547 80.5281 16.742C80.9108 16.937 81.243 17.1861 81.5247 17.4894C81.8063 17.7927 82.0302 18.1466 82.1963 18.551C82.3624 18.9554 82.4455 19.4104 82.4455 19.9159ZM78.2424 13.4813C78.2424 12.9614 78.0438 12.5822 77.6466 12.3439C77.2494 12.1056 76.6608 11.9864 75.8809 11.9864H74.061V15.1496H76.0542C76.7475 15.1496 77.2855 15.0087 77.6683 14.7271C78.051 14.4454 78.2424 14.0302 78.2424 13.4813ZM78.7407 19.5693C78.7407 18.9338 78.5024 18.4932 78.0257 18.2477C77.5491 18.0022 76.9136 17.8794 76.1192 17.8794H74.061V21.3892H76.1409C76.4297 21.3892 76.7294 21.3639 77.04 21.3133C77.3505 21.2628 77.6321 21.1725 77.8849 21.0425C78.1377 20.9125 78.3435 20.7284 78.5024 20.4901C78.6612 20.2517 78.7407 19.9448 78.7407 19.5693ZM91.0683 19.6776H90.6133C90.2233 19.6776 89.8297 19.6957 89.4325 19.7318C89.0353 19.7679 88.6815 19.8365 88.3709 19.9376C88.0604 20.0387 87.804 20.1867 87.6018 20.3817C87.3996 20.5767 87.2985 20.8331 87.2985 21.1509C87.2985 21.3531 87.3454 21.5264 87.4393 21.6708C87.5332 21.8153 87.6524 21.9308 87.7968 22.0175C87.9412 22.1041 88.1073 22.1655 88.2951 22.2016C88.4829 22.2377 88.6634 22.2558 88.8367 22.2558C89.5589 22.2558 90.1114 22.0572 90.4941 21.66C90.8769 21.2628 91.0683 20.7248 91.0683 20.0459V19.6776ZM84.547 15.0629C85.1825 14.4563 85.9227 14.0013 86.7677 13.698C87.6126 13.3947 88.4756 13.243 89.3567 13.243C90.2666 13.243 91.0358 13.3549 91.6641 13.5788C92.2924 13.8027 92.8015 14.1493 93.1915 14.6188C93.5814 15.0882 93.8667 15.6804 94.0472 16.3953C94.2278 17.1103 94.3181 17.9588 94.3181 18.941V24.379H91.0683V23.2307H91.0033C90.7288 23.6785 90.3136 24.0251 89.7575 24.2707C89.2014 24.5162 88.5984 24.639 87.9485 24.639C87.5151 24.639 87.0674 24.5812 86.6052 24.4657C86.143 24.3501 85.7205 24.1623 85.3378 23.9024C84.955 23.6424 84.6409 23.2957 84.3953 22.8624C84.1498 22.4291 84.027 21.8947 84.027 21.2592C84.027 20.4792 84.2401 19.8509 84.6662 19.3743C85.0922 18.8977 85.6411 18.5294 86.3127 18.2694C86.9844 18.0094 87.7318 17.8361 88.5551 17.7494C89.3784 17.6627 90.18 17.6194 90.9599 17.6194V17.4461C90.9599 16.9117 90.7722 16.5181 90.3966 16.2653C90.0211 16.0126 89.5589 15.8862 89.0101 15.8862C88.5045 15.8862 88.0171 15.9945 87.5476 16.2112C87.0782 16.4278 86.6774 16.6878 86.3452 16.9911L84.547 15.0629ZM104.046 24.379V18.486C104.046 18.1827 104.021 17.8938 103.97 17.6194C103.919 17.345 103.836 17.1031 103.721 16.8936C103.605 16.6842 103.443 16.5181 103.233 16.3953C103.024 16.2725 102.76 16.2112 102.443 16.2112C102.125 16.2112 101.847 16.2725 101.608 16.3953C101.37 16.5181 101.172 16.6878 101.013 16.9045C100.854 17.1211 100.735 17.3703 100.655 17.6519C100.576 17.9336 100.536 18.226 100.536 18.5294V24.379H96.9612V13.5897H100.406V15.0846H100.449C100.579 14.8535 100.749 14.626 100.958 14.4021C101.168 14.1782 101.413 13.9869 101.695 13.828C101.977 13.6691 102.284 13.5391 102.616 13.438C102.948 13.3369 103.302 13.2863 103.677 13.2863C104.4 13.2863 105.014 13.4163 105.519 13.6763C106.025 13.9363 106.433 14.2721 106.743 14.6838C107.054 15.0954 107.278 15.5684 107.415 16.1028C107.552 16.6372 107.621 17.1717 107.621 17.7061V24.379H104.046ZM121.898 24.379H117.5L113.969 19.201H113.904V24.379H110.329V8H113.904V17.9661H113.969L117.413 13.5897H121.725L117.565 18.4644L121.898 24.379Z" fill="#616B84"/>
</svg>
