<?xml version="1.0" encoding="UTF-8"?>
<svg width="100px" height="26px" viewBox="0 0 100 26" version="1.1" xmlns="http://www.w3.org/2000/svg" xmlns:xlink="http://www.w3.org/1999/xlink" style="background: #FE815F;">
    <!-- Generator: Sketch 63.1 (92452) - https://sketch.com -->
    <title>logo/horizon</title>
    <desc>Created with Sketch.</desc>
    <g id="logo/horizon" stroke="none" stroke-width="1" fill="none" fill-rule="evenodd">
        <rect x="0" y="0" width="100" height="26"></rect>
        <path d="M22.3641587,18.0846894 C22.3641587,22.2969839 18.8981981,25.7117234 14.6227191,25.7117234 L3.33955086e-13,25.7117234 L3.33955086e-13,20.627034 L14.6227191,20.627034 C16.0478788,20.627034 17.203199,19.4887875 17.203199,18.0846894 C17.203199,16.6805912 16.0478788,15.5423447 14.6227191,15.5423447 L9.46175944,15.5423447 L9.46175944,10.4576553 L14.6227191,10.4576553 C16.0478788,10.4576553 17.203199,9.31940884 17.203199,7.91531065 C17.203199,6.51121245 16.0478788,5.37296597 14.6227191,5.37296597 L3.33955086e-13,5.37296597 L3.33955086e-13,0.28827662 L14.6227191,0.28827662 C18.8981981,0.28827662 22.3641587,3.70301607 22.3641587,7.91531065 C22.3641587,9.86873246 21.6187779,11.6506341 20.3929469,13 C21.6187779,14.3493659 22.3641587,16.1312675 22.3641587,18.0846894 Z" id="Path" fill="#FFFFFF" opacity="0.800000012"></path>
        <path d="M-7.37188088e-14,20.627034 L12.5594062,20.627034 C9.89161879,23.7145761 5.64418088,25.7117234 0.860159949,25.7117234 C0.571408732,25.7117234 0.284612298,25.7044477 -7.37188088e-14,25.6900958 L-7.37188088e-14,20.627034 L-7.37188088e-14,20.627034 Z M15.1903717,15.5423447 L10.3219194,15.5423447 L10.3219194,10.4576553 L15.1903717,10.4576553 C15.3821863,11.2791122 15.4828791,12.1293338 15.4828791,13 C15.4828791,13.8706662 15.3821863,14.7208878 15.1903717,15.5423447 Z M12.5594062,5.37296597 L8.35775893e-13,5.37296597 L8.35775893e-13,0.309904179 C0.284612298,0.295552266 0.571408732,0.28827662 0.860159949,0.28827662 C5.64418088,0.28827662 9.89161879,2.28542386 12.5594062,5.37296597 L12.5594062,5.37296597 Z" id="Shape" fill="#000000" fill-rule="nonzero" opacity="0.119999997"></path>
        <path d="M2.83328916e-13,0.28827662 C7.12579833,0.28827662 12.9023992,5.97950903 12.9023992,13 C12.9023992,20.020491 7.12579833,25.7117234 2.83328916e-13,25.7117234 L2.83328916e-13,20.627034 C4.275479,20.627034 7.74143954,17.2122946 7.74143954,13 C7.74143954,8.78770542 4.275479,5.37296597 2.83328916e-13,5.37296597 L2.83328916e-13,0.28827662 Z" id="Path" fill="#FFFFFF" fill-rule="nonzero"></path>
        <path d="M44.1062317,8.62278687 C44.1062317,9.69739272 43.9069126,10.6246597 43.5082685,11.4046155 C43.1096244,12.1845714 42.5838843,12.8258588 41.9310323,13.328497 C41.2781804,13.8311352 40.5415664,14.2008865 39.7211684,14.437762 C38.9007704,14.6746375 38.06883,14.7930735 37.2253222,14.7930735 L32.649604,14.7930735 L32.649604,2.52182932 L37.086664,2.52182932 C37.9532817,2.52182932 38.8083315,2.6229332 39.6518394,2.82514397 C40.4953472,3.02735475 41.2464045,3.36244187 41.9050339,3.83041539 C42.5636633,4.2983889 43.0951808,4.92523291 43.4996024,5.71096622 C43.9040239,6.49669953 44.1062317,7.46729671 44.1062317,8.62278687 Z M41.0210884,8.62278687 C41.0210884,7.92949277 40.9084298,7.35464504 40.6831092,6.89822643 C40.4577886,6.44180781 40.1573657,6.07783387 39.7818314,5.80629368 C39.4062971,5.5347535 38.9787721,5.3412118 38.4992437,5.22566278 C38.0197153,5.11011376 37.5257506,5.05234012 37.017335,5.05234012 L35.5440924,5.05234012 L35.5440924,12.2278981 L36.9480059,12.2278981 C37.4795314,12.2278981 37.9908281,12.1672358 38.4819114,12.0459094 C38.9729947,11.9245829 39.4062971,11.7252638 39.7818314,11.4479462 C40.1573657,11.1706285 40.4577886,10.8008772 40.6831092,10.3386812 C40.9084298,9.87648511 41.0210884,9.30452606 41.0210884,8.62278687 Z M51.8537545,9.48940016 C51.8537545,9.03875899 51.712209,8.6516756 51.4291139,8.32813835 C51.1460189,8.00460111 50.7213826,7.84283491 50.1551924,7.84283491 C49.8778748,7.84283491 49.6236707,7.88616514 49.3925727,7.9728269 C49.1614747,8.05948867 48.9592669,8.17792463 48.7859434,8.32813835 C48.6126199,8.47835207 48.4739632,8.65456168 48.369969,8.85677246 C48.2659749,9.05898323 48.2082013,9.26985703 48.1966464,9.48940016 L51.8537545,9.48940016 Z M54.4709266,10.5813329 L54.4709266,10.9279782 C54.4709266,11.0435272 54.4651492,11.1532971 54.4535943,11.2572913 L48.1966464,11.2572913 C48.2197562,11.4999442 48.2919732,11.719484 48.4132997,11.9159174 C48.5346262,12.1123507 48.690615,12.2827829 48.8812709,12.4272192 C49.0719268,12.5716555 49.2856892,12.6843141 49.5225647,12.7651984 C49.7594402,12.8460827 50.0049782,12.8865242 50.259186,12.8865242 C50.7098272,12.8865242 51.0911332,12.8027525 51.4031155,12.6352064 C51.7150979,12.4676603 51.9693019,12.2510092 52.1657352,11.9852464 L54.1416135,13.2331696 C53.737192,13.8224695 53.2027858,14.2759926 52.538379,14.5937524 C51.8739721,14.9115106 51.102694,15.0703897 50.2245215,15.0703897 C49.577447,15.0703897 48.9650464,14.9692859 48.3873013,14.7670751 C47.8095562,14.5648643 47.3040369,14.2702187 46.8707281,13.8831295 C46.4374192,13.4960403 46.0965548,13.0194078 45.8481244,12.4532176 C45.599694,11.8870274 45.4754807,11.2399626 45.4754807,10.5120038 C45.4754807,9.80715484 45.5968053,9.1687561 45.8394582,8.59678847 C46.0821112,8.02482084 46.4114209,7.53952225 46.8273974,7.14087815 C47.2433738,6.74223404 47.7344498,6.43314506 48.30064,6.21360193 C48.8668302,5.9940588 49.4792308,5.88428888 50.1378601,5.88428888 C50.7733797,5.88428888 51.3568935,5.99117012 51.888419,6.2049358 C52.4199445,6.41870148 52.8763562,6.72779046 53.257668,7.13221201 C53.6389797,7.53663357 53.936514,8.02770952 54.1502797,8.6054546 C54.3640453,9.18319968 54.4709266,9.8418192 54.4709266,10.5813329 Z M65.9622188,11.2226267 C65.9622188,11.892811 65.8293394,12.456104 65.5635767,12.9125226 C65.2978139,13.3689413 64.9453947,13.7358039 64.5063085,14.0131215 C64.0672222,14.2904392 63.5674802,14.4897582 63.0070675,14.6110847 C62.4466547,14.7324112 61.871807,14.7930735 61.282507,14.7930735 L56.3948081,14.7930735 L56.3948081,2.52182932 L61.282507,2.52182932 C61.756258,2.52182932 62.2415566,2.57093692 62.7384173,2.66915358 C63.2352781,2.76737025 63.6859125,2.93491381 64.0903341,3.17178929 C64.4947556,3.40866477 64.8240654,3.72930848 65.0782732,4.13373004 C65.3324811,4.53815159 65.4595831,5.052337 65.4595831,5.67630169 C65.4595831,6.35804089 65.2747074,6.92133389 64.9049506,7.3661976 C64.5351937,7.81106131 64.0498951,8.13170502 63.4490402,8.32813835 L63.4490402,8.36280288 C63.7956873,8.42057739 64.1221084,8.52745863 64.4283133,8.6834498 C64.7345182,8.83944097 65.0002769,9.03876003 65.2255975,9.28141297 C65.4509181,9.5240659 65.6300164,9.80715674 65.7628977,10.130694 C65.8957791,10.4542312 65.9622188,10.8182052 65.9622188,11.2226267 Z M62.5997592,6.0749438 C62.5997592,5.65896734 62.4408817,5.35565573 62.1231219,5.16499985 C61.8053621,4.97434397 61.3345069,4.87901747 60.7105423,4.87901747 L59.2546319,4.87901747 L59.2546319,7.40952827 L60.8492004,7.40952827 C61.4038357,7.40952827 61.8342493,7.29686967 62.1404542,7.07154908 C62.4466591,6.8462285 62.5997592,6.51403006 62.5997592,6.0749438 Z M62.9984013,10.9453105 C62.9984013,10.4368948 62.8077483,10.0844756 62.4264366,9.88804227 C62.0451248,9.69160894 61.5367168,9.59339375 60.9011972,9.59339375 L59.2546319,9.59339375 L59.2546319,12.4012208 L60.9185294,12.4012208 C61.1496275,12.4012208 61.3893881,12.381 61.6378185,12.3405579 C61.8862489,12.3001157 62.1115661,12.2278987 62.3137768,12.1239046 C62.5159876,12.0199104 62.6806425,11.8725877 62.8077464,11.6819318 C62.9348503,11.4912759 62.9984013,11.2457379 62.9984013,10.9453105 Z M72.8604606,11.0319718 L72.496483,11.0319718 C72.1845006,11.0319718 71.8696343,11.0464152 71.5518745,11.0753025 C71.2341147,11.1041897 70.9510238,11.1590747 70.7025935,11.239959 C70.4541631,11.3208433 70.2490667,11.4392793 70.087298,11.5952704 C69.9255294,11.7512616 69.8446463,11.956358 69.8446463,12.2105659 C69.8446463,12.3723345 69.8821992,12.5109912 69.957306,12.6265403 C70.0324129,12.7420893 70.1277394,12.8345271 70.2432884,12.9038565 C70.3588374,12.9731859 70.4917168,13.0222935 70.6419305,13.0511808 C70.7921443,13.080068 70.9365784,13.0945114 71.0752372,13.0945114 C71.6529823,13.0945114 72.0949506,12.9356339 72.4011555,12.6178741 C72.7073604,12.3001143 72.8604606,11.8697007 72.8604606,11.3266203 L72.8604606,11.0319718 Z M67.6434486,7.3401992 C68.1518642,6.85489334 68.7440441,6.49091939 69.4200058,6.24826646 C70.0959675,6.00561353 70.7863626,5.88428888 71.4912116,5.88428888 C72.2191704,5.88428888 72.8344596,5.97383802 73.3370979,6.152939 C73.8397361,6.33203997 74.2470403,6.60935345 74.5590226,6.98488775 C74.8710049,7.36042206 75.0992108,7.83416592 75.2436471,8.40613355 C75.3880834,8.97810118 75.4603004,9.65694146 75.4603004,10.4426748 L75.4603004,14.7930735 L72.8604606,14.7930735 L72.8604606,13.8744634 L72.8084638,13.8744634 C72.5889206,14.2326653 72.2567222,14.5099788 71.8118585,14.7064121 C71.3669948,14.9028455 70.8845849,15.0010607 70.3646143,15.0010607 C70.0179672,15.0010607 69.6597707,14.9548418 69.2900138,14.8624025 C68.920257,14.7699633 68.5822812,14.6197519 68.2760763,14.4117636 C67.9698714,14.2037754 67.718556,13.9264619 67.5221227,13.5798149 C67.3256894,13.2331678 67.2274742,12.8056429 67.2274742,12.2972272 C67.2274742,11.6732625 67.3979064,11.1706318 67.738776,10.7893201 C68.0796456,10.4080083 68.5187253,10.1133628 69.0560282,9.90537453 C69.5933311,9.69738631 70.1912883,9.55872957 70.8499177,9.48940016 C71.5085471,9.42007075 72.1498345,9.38540656 72.7737992,9.38540656 L72.7737992,9.24674844 C72.7737992,8.81921708 72.6235878,8.50435073 72.3231603,8.30213995 C72.0227329,8.09992917 71.6529816,7.9988253 71.2138953,7.9988253 C70.8094737,7.9988253 70.4195017,8.08548576 70.0439674,8.25880929 C69.6684331,8.43213281 69.3477894,8.64011792 69.0820266,8.88277086 L67.6434486,7.3401992 Z M83.2424877,14.7930735 L83.2424877,10.0786972 C83.2424877,9.83604426 83.222267,9.60494969 83.1818248,9.38540656 C83.1413827,9.16586343 83.074943,8.97232173 82.9825038,8.80477566 C82.8900645,8.63722959 82.7600738,8.50435021 82.5925278,8.40613355 C82.4249817,8.30791688 82.2141079,8.25880929 81.9599001,8.25880929 C81.7056922,8.25880929 81.4832637,8.30791688 81.2926078,8.40613355 C81.101952,8.50435021 80.9430744,8.64011827 80.8159705,8.81344179 C80.6888666,8.98676532 80.5935401,9.18608438 80.5299881,9.41140496 C80.4664362,9.63672554 80.4346607,9.87070879 80.4346607,10.1133617 L80.4346607,14.7930735 L77.5748368,14.7930735 L77.5748368,6.16160513 L80.3306671,6.16160513 L80.3306671,7.35753147 L80.3653316,7.35753147 C80.4693257,7.17265304 80.6050938,6.99066607 80.7726399,6.8115651 C80.9401859,6.63246412 81.1366163,6.47936397 81.3619369,6.35226005 C81.5872575,6.22515614 81.8327955,6.12116358 82.0985582,6.04027927 C82.3643209,5.95939496 82.6474118,5.91895341 82.9478392,5.91895341 C83.5255843,5.91895341 84.0166603,6.02294597 84.4210818,6.23093419 C84.8255034,6.43892242 85.1519244,6.70756986 85.4003548,7.03688455 C85.6487852,7.36619925 85.8278835,7.7446166 85.9376551,8.17214796 C86.0474266,8.59967932 86.1023116,9.02720427 86.1023116,9.45473563 L86.1023116,14.7930735 L83.2424877,14.7930735 Z M97.5242747,14.7930735 L94.0058248,14.7930735 L91.1806655,10.650662 L91.1286687,10.650662 L91.1286687,14.7930735 L88.2688448,14.7930735 L88.2688448,1.68988057 L91.1286687,1.68988057 L91.1286687,9.66272281 L91.1806655,9.66272281 L93.9364957,6.16160513 L97.3856166,6.16160513 L94.0578216,10.0613649 L97.5242747,14.7930735 Z" id="DeBank" fill="#FFFFFF" fill-rule="nonzero"></path>
        <path d="M35.8145997,24.1922267 L35.8145997,21.6070082 L38.0545611,18.2302243 L36.8251086,18.2302243 L35.3093453,20.7396547 L33.8104237,18.2302243 L32.513604,18.2302243 L34.7535654,21.6070082 L34.7535654,24.1922267 L35.8145997,24.1922267 Z M39.6797962,24.3101194 C39.9829489,24.3101194 40.2692597,24.256787 40.5387288,24.1501222 C40.8081978,24.0434574 41.0411762,23.8960915 41.2376641,23.7080246 C41.4341519,23.5199576 41.5899387,23.2939966 41.7050244,23.0301415 C41.8201102,22.7662864 41.8776531,22.4743616 41.8776531,22.1543671 C41.8776531,21.8343727 41.8201102,21.5438513 41.7050244,21.2828032 C41.5899387,21.0217551 41.4341519,20.798601 41.2376641,20.6133411 C41.0411762,20.4280811 40.8081978,20.2849257 40.5387288,20.1838748 C40.2692597,20.0828239 39.9829489,20.0322985 39.6797962,20.0322985 C39.3766435,20.0322985 39.0903327,20.0828239 38.8208637,20.1838748 C38.5513946,20.2849257 38.3184162,20.4280811 38.1219283,20.6133411 C37.9254405,20.798601 37.7696537,21.0217551 37.654568,21.2828032 C37.5394822,21.5438513 37.4819394,21.8343727 37.4819394,22.1543671 C37.4819394,22.4743616 37.5394822,22.7662864 37.654568,23.0301415 C37.7696537,23.2939966 37.9254405,23.5199576 38.1219283,23.7080246 C38.3184162,23.8960915 38.5513946,24.0434574 38.8208637,24.1501222 C39.0903327,24.256787 39.3766435,24.3101194 39.6797962,24.3101194 Z M39.6797962,23.4680287 C39.4776944,23.4680287 39.3036624,23.4287311 39.1577,23.350136 C39.0117376,23.2715409 38.8910379,23.17049 38.7956009,23.0469833 C38.700164,22.9234767 38.6285863,22.7831282 38.5808678,22.625938 C38.5331493,22.4687477 38.5092901,22.3115574 38.5092901,22.1543671 C38.5092901,21.9971769 38.5331493,21.8413901 38.5808678,21.6870068 C38.6285863,21.5326235 38.700164,21.3936785 38.7956009,21.2701719 C38.8910379,21.1466652 39.0117376,21.0470178 39.1577,20.9712296 C39.3036624,20.8954415 39.4776944,20.8575474 39.6797962,20.8575474 C39.881898,20.8575474 40.0559301,20.8954415 40.2018925,20.9712296 C40.3478549,21.0470178 40.4685545,21.1466652 40.5639915,21.2701719 C40.6594284,21.3936785 40.7310062,21.5326235 40.7787246,21.6870068 C40.8264431,21.8413901 40.8503023,21.9971769 40.8503023,22.1543671 C40.8503023,22.3115574 40.8264431,22.4687477 40.7787246,22.625938 C40.7310062,22.7831282 40.6594284,22.9234767 40.5639915,23.0469833 C40.4685545,23.17049 40.3478549,23.2715409 40.2018925,23.350136 C40.0559301,23.4287311 39.881898,23.4680287 39.6797962,23.4680287 Z M44.3112953,24.3101194 C44.614448,24.3101194 44.8768996,24.2329278 45.0986501,24.0785445 C45.3204007,23.9241612 45.4761875,23.7459186 45.5660105,23.5438169 L45.5828523,23.5438169 L45.5828523,24.1922267 L46.5428358,24.1922267 L46.5428358,20.1501912 L45.5323269,20.1501912 L45.5323269,22.3733107 C45.5323269,22.5080452 45.5126781,22.6413763 45.4733805,22.7733038 C45.4340829,22.9052314 45.3765401,23.0217206 45.3007519,23.1227715 C45.2249637,23.2238224 45.1267198,23.306628 45.0060202,23.3711883 C44.8853205,23.4357485 44.7463755,23.4680287 44.5891852,23.4680287 C44.426381,23.4680287 44.295857,23.4343451 44.197613,23.3669778 C44.0993691,23.2996105 44.0221775,23.213998 43.9660381,23.1101401 C43.9098987,23.0062823 43.8734081,22.889793 43.8565663,22.7606725 C43.8397245,22.6315519 43.8313036,22.5080452 43.8313036,22.3901525 L43.8313036,20.1501912 L42.8207947,20.1501912 L42.8207947,22.6764634 C42.8207947,22.8841791 42.8488644,23.0862809 42.9050038,23.2827687 C42.9611431,23.4792566 43.0495627,23.6532887 43.1702623,23.804865 C43.290962,23.9564413 43.4453453,24.0785445 43.6334122,24.1711745 C43.8214792,24.2638044 44.0474402,24.3101194 44.3112953,24.3101194 Z M48.7659553,24.1922267 L48.7659553,22.0280535 C48.7659553,21.9550723 48.7799902,21.8568284 48.8080599,21.7333218 C48.8361295,21.6098151 48.889462,21.4891154 48.9680571,21.3712227 C49.0466522,21.25333 49.156124,21.1522792 49.2964725,21.0680701 C49.4368209,20.983861 49.6220809,20.9417565 49.8522524,20.9417565 C49.8971639,20.9417565 49.9434789,20.9445634 49.9911973,20.9501774 C50.0389158,20.9557913 50.0964587,20.9670192 50.1638259,20.983861 L50.1638259,20.0575612 C50.1301423,20.0463333 50.0908447,20.0393159 50.0459332,20.0365089 C50.0010217,20.033702 49.9589172,20.0322985 49.9196196,20.0322985 C49.6501506,20.0322985 49.4143652,20.1052797 49.2122634,20.2512421 C49.0101616,20.3972045 48.8529714,20.5880784 48.7406926,20.8238638 L48.7238508,20.8238638 L48.7238508,20.1501912 L47.7554464,20.1501912 L47.7554464,24.1922267 L48.7659553,24.1922267 Z M55.0900568,24.1922267 C55.4774185,24.1922267 55.8675872,24.1346839 56.2605629,24.0195981 C56.6535386,23.9045124 57.0072167,23.7262699 57.3215972,23.4848705 C57.6359778,23.2434712 57.891412,22.9347046 58.0878998,22.5585707 C58.2843877,22.1824368 58.3826316,21.7333218 58.3826316,21.2112255 C58.3826316,20.6498317 58.2843877,20.1796643 58.0878998,19.8007235 C57.891412,19.4217827 57.6359778,19.115823 57.3215972,18.8828446 C57.0072167,18.6498662 56.6535386,18.4828515 56.2605629,18.3818006 C55.8675872,18.2807497 55.4774185,18.2302243 55.0900568,18.2302243 L52.976409,18.2302243 L52.976409,24.1922267 L55.0900568,24.1922267 Z M54.0374434,23.2659269 L54.0374434,19.1396823 L54.9216386,19.1396823 C55.1967216,19.1396823 55.4718046,19.167752 55.7468876,19.2238914 C56.0219705,19.2800307 56.2703873,19.3838886 56.4921379,19.5354649 C56.7138884,19.6870413 56.8949379,19.8975639 57.0352864,20.167033 C57.1756349,20.436502 57.2458091,20.7845662 57.2458091,21.2112255 C57.2458091,21.6154291 57.1756349,21.9494584 57.0352864,22.2133135 C56.8949379,22.4771686 56.7138884,22.6862878 56.4921379,22.8406711 C56.2703873,22.9950544 56.0219705,23.1045262 55.7468876,23.1690865 C55.4718046,23.2336468 55.1967216,23.2659269 54.9216386,23.2659269 L54.0374434,23.2659269 Z M61.2962655,24.3101194 C62.0541472,24.3101194 62.6323829,24.0406504 63.0309725,23.5017123 L62.3572999,22.9627742 C62.2450211,23.1255785 62.1018657,23.2532956 61.9278336,23.3459255 C61.7538015,23.4385555 61.5404719,23.4848705 61.2878446,23.4848705 C61.1418822,23.4848705 61.0015338,23.4596078 60.8667993,23.4090823 C60.7320648,23.3585569 60.6113651,23.2897862 60.5047003,23.2027701 C60.3980354,23.1157541 60.3124229,23.0118962 60.2478626,22.8911965 C60.1833023,22.7704969 60.1454082,22.6371658 60.1341803,22.4912034 L63.2078115,22.4912034 C63.2134255,22.4462919 63.2162324,22.4013804 63.2162324,22.3564689 L63.2162324,22.2217344 C63.2162324,21.8568284 63.1671105,21.5382374 63.0688666,21.2659614 C62.9706226,20.9936854 62.8344846,20.7663209 62.6604526,20.5838679 C62.4864205,20.4014149 62.2801082,20.2638734 62.0415159,20.1712434 C61.8029235,20.0786135 61.5432788,20.0322985 61.2625819,20.0322985 C60.9594293,20.0322985 60.6773289,20.0842274 60.4162807,20.1880853 C60.1552326,20.2919431 59.9292716,20.4379055 59.7383977,20.6259724 C59.5475238,20.8140394 59.3973509,21.0414039 59.2878791,21.3080659 C59.1784073,21.574728 59.1236714,21.8708633 59.1236714,22.1964717 C59.1236714,22.527694 59.1784073,22.8238293 59.2878791,23.0848774 C59.3973509,23.3459255 59.5489273,23.5662726 59.7426081,23.7459186 C59.936289,23.9255647 60.165057,24.0645096 60.4289121,24.1627536 C60.6927672,24.2609975 60.981885,24.3101194 61.2962655,24.3101194 Z M60.1341803,21.7670054 C60.1566361,21.4806945 60.2731253,21.2463126 60.483648,21.0638596 C60.6941707,20.8814066 60.9510083,20.7901801 61.254161,20.7901801 C61.4169652,20.7901801 61.5587172,20.8168463 61.6794168,20.8701788 C61.8001165,20.9235112 61.8997639,20.9950889 61.978359,21.0849119 C62.0569542,21.1747349 62.1144971,21.2785928 62.1509877,21.3964855 C62.1874783,21.5143782 62.2057235,21.6378848 62.2057235,21.7670054 L60.1341803,21.7670054 Z M65.3046175,24.1922267 L65.3046175,21.6827963 L67.9319406,21.6827963 L67.9319406,20.7901801 L65.3046175,20.7901801 L65.3046175,19.1565241 L68.0919378,19.1565241 L68.0919378,18.2302243 L64.2435831,18.2302243 L64.2435831,24.1922267 L65.3046175,24.1922267 Z M69.3803367,19.3838886 C69.5655966,19.3838886 69.7213834,19.3263457 69.847697,19.21126 C69.9740106,19.0961743 70.0371674,18.9516153 70.0371674,18.7775833 C70.0371674,18.6035512 69.9740106,18.4589923 69.847697,18.3439065 C69.7213834,18.2288208 69.5655966,18.1712779 69.3803367,18.1712779 C69.1950767,18.1712779 69.0420969,18.2316278 68.9213972,18.3523274 C68.8006975,18.4730271 68.7403477,18.6147791 68.7403477,18.7775833 C68.7403477,18.9403875 68.8006975,19.0821394 68.9213972,19.2028391 C69.0420969,19.3235388 69.1950767,19.3838886 69.3803367,19.3838886 Z M69.894012,24.1922267 L69.894012,20.1501912 L68.8835031,20.1501912 L68.8835031,24.1922267 L69.894012,24.1922267 Z M75.3423391,24.1922267 L76.7402097,19.7207249 L76.7570516,19.7207249 L78.1549222,24.1922267 L79.1822729,24.1922267 L80.9254007,18.2302243 L79.7969991,18.2302243 L78.6180721,22.6090961 L78.6012303,22.6090961 L77.3128315,18.2302243 L76.2181135,18.2302243 L74.9044519,22.6090961 L74.8876101,22.6090961 L73.7339458,18.2302243 L72.5718606,18.2302243 L74.3149884,24.1922267 L75.3423391,24.1922267 Z M82.5085313,24.2932776 C82.7948422,24.2932776 83.0502764,24.2357348 83.2748339,24.120649 C83.4993914,24.0055633 83.6621956,23.8581974 83.7632465,23.6785514 L83.7885093,23.6785514 L83.7885093,24.1922267 L84.7316509,24.1922267 L84.7316509,21.7333218 C84.7316509,21.53122 84.7049847,21.3291182 84.6516523,21.1270164 C84.5983199,20.9249147 84.5042864,20.7424617 84.3695519,20.5796574 C84.2348173,20.4168532 84.0509609,20.2849257 83.8179824,20.1838748 C83.585004,20.0828239 83.2888687,20.0322985 82.9295767,20.0322985 C82.6208101,20.0322985 82.3162539,20.0856309 82.0159082,20.1922957 C81.7155625,20.2989605 81.450304,20.4589578 81.2201325,20.6722874 L81.7422288,21.2870137 C81.8713493,21.1578931 82.0341535,21.0484213 82.2306414,20.9585983 C82.4271292,20.8687753 82.632038,20.8238638 82.8453676,20.8238638 C83.0979948,20.8238638 83.315535,20.8842136 83.4979879,21.0049133 C83.6804409,21.1256129 83.7716674,21.3122764 83.7716674,21.5649036 L83.7716674,21.6659545 C83.4572869,21.6659545 83.1358889,21.6813928 82.8074735,21.7122695 C82.4790582,21.7431462 82.1801159,21.806303 81.9106469,21.9017399 C81.6411779,21.9971769 81.4208308,22.1347184 81.2496057,22.3143644 C81.0783806,22.4940104 80.992768,22.7354097 80.992768,23.0385624 C80.992768,23.2743478 81.04189,23.4722391 81.1401339,23.6322364 C81.2383778,23.7922336 81.3618844,23.9213542 81.5106538,24.0195981 C81.6594232,24.117842 81.8222274,24.1880163 81.9990664,24.2301208 C82.1759055,24.2722254 82.3457271,24.2932776 82.5085313,24.2932776 Z M82.7106331,23.526975 C82.626424,23.526975 82.542215,23.5185541 82.4580059,23.5017123 C82.3737968,23.4848705 82.2980086,23.4568008 82.2306414,23.4175032 C82.1632741,23.3782057 82.1085382,23.3262768 82.0664337,23.2617165 C82.0243292,23.1971562 82.0032769,23.1171575 82.0032769,23.0217206 C82.0032769,22.8701443 82.0538023,22.7508481 82.1548532,22.663832 C82.2559041,22.576816 82.3822177,22.5094487 82.533794,22.4617303 C82.6853704,22.4140118 82.8509816,22.3831351 83.0306276,22.3691003 C83.2102736,22.3550654 83.3814987,22.348048 83.5443029,22.348048 L83.7716674,22.348048 L83.7716674,22.4912034 C83.7716674,22.8111979 83.6818444,23.0638251 83.5021984,23.2490851 C83.3225524,23.4343451 83.0586973,23.526975 82.7106331,23.526975 Z M86.9379286,24.1922267 L86.9379286,17.8260207 L85.9274197,17.8260207 L85.9274197,24.1922267 L86.9379286,24.1922267 Z M89.1947318,24.1922267 L89.1947318,17.8260207 L88.1842229,17.8260207 L88.1842229,24.1922267 L89.1947318,24.1922267 Z M92.360993,24.3101194 C93.1188747,24.3101194 93.6971103,24.0406504 94.0956999,23.5017123 L93.4220273,22.9627742 C93.3097486,23.1255785 93.1665931,23.2532956 92.9925611,23.3459255 C92.818529,23.4385555 92.6051993,23.4848705 92.3525721,23.4848705 C92.2066097,23.4848705 92.0662612,23.4596078 91.9315267,23.4090823 C91.7967922,23.3585569 91.6760925,23.2897862 91.5694277,23.2027701 C91.4627629,23.1157541 91.3771503,23.0118962 91.31259,22.8911965 C91.2480297,22.7704969 91.2101357,22.6371658 91.1989078,22.4912034 L94.272539,22.4912034 C94.2781529,22.4462919 94.2809599,22.4013804 94.2809599,22.3564689 L94.2809599,22.2217344 C94.2809599,21.8568284 94.2318379,21.5382374 94.133594,21.2659614 C94.0353501,20.9936854 93.8992121,20.7663209 93.72518,20.5838679 C93.5511479,20.4014149 93.3448357,20.2638734 93.1062433,20.1712434 C92.8676509,20.0786135 92.6080063,20.0322985 92.3273094,20.0322985 C92.0241567,20.0322985 91.7420563,20.0842274 91.4810082,20.1880853 C91.21996,20.2919431 90.993999,20.4379055 90.8031251,20.6259724 C90.6122512,20.8140394 90.4620784,21.0414039 90.3526066,21.3080659 C90.2431348,21.574728 90.1883989,21.8708633 90.1883989,22.1964717 C90.1883989,22.527694 90.2431348,22.8238293 90.3526066,23.0848774 C90.4620784,23.3459255 90.6136547,23.5662726 90.8073356,23.7459186 C91.0010165,23.9255647 91.2297844,24.0645096 91.4936395,24.1627536 C91.7574946,24.2609975 92.0466125,24.3101194 92.360993,24.3101194 Z M91.1989078,21.7670054 C91.2213635,21.4806945 91.3378528,21.2463126 91.5483754,21.0638596 C91.7588981,20.8814066 92.0157358,20.7901801 92.3188885,20.7901801 C92.4816927,20.7901801 92.6234446,20.8168463 92.7441443,20.8701788 C92.864844,20.9235112 92.9644914,20.9950889 93.0430865,21.0849119 C93.1216816,21.1747349 93.1792245,21.2785928 93.2157151,21.3964855 C93.2522057,21.5143782 93.270451,21.6378848 93.270451,21.7670054 L91.1989078,21.7670054 Z M96.6977603,24.2764358 C96.8100391,24.2764358 96.9279318,24.2666114 97.0514384,24.2469626 C97.1749451,24.2273138 97.2816099,24.2006476 97.3714329,24.166964 L97.3377493,23.3753987 C97.275996,23.4034684 97.2058217,23.4245207 97.1272266,23.4385555 C97.0486315,23.4525904 96.9756503,23.4596078 96.908283,23.4596078 C96.6837255,23.4596078 96.5391666,23.4006614 96.4746063,23.2827687 C96.410046,23.164876 96.3777658,23.0161067 96.3777658,22.8364606 L96.3777658,20.9585983 L97.3882747,20.9585983 L97.3882747,20.1501912 L96.3777658,20.1501912 L96.3777658,18.979685 L95.3840988,18.979685 L95.3840988,20.1501912 L94.6767425,20.1501912 L94.6767425,20.9585983 L95.3840988,20.9585983 L95.3840988,22.8448815 C95.3840988,23.0413694 95.4023441,23.2252259 95.4388347,23.396451 C95.4753253,23.5676761 95.5426925,23.7192524 95.6409364,23.85118 C95.7391804,23.9831075 95.8725114,24.0869654 96.0409295,24.1627536 C96.2093477,24.2385417 96.4282913,24.2764358 96.6977603,24.2764358 Z" id="YourDeFiWallet" fill="#FFFFFF" fill-rule="nonzero"></path>
    </g>
</svg>
