<?xml version="1.0" encoding="UTF-8"?>
<svg width="133px" height="17px" viewBox="0 0 133 17" version="1.1" xmlns="http://www.w3.org/2000/svg" xmlns:xlink="http://www.w3.org/1999/xlink">
    <!-- Generator: Sketch 53 (72520) - https://sketchapp.com -->
    <title>logo-grasshopper-lockup</title>
    <desc>Created with Sketch.</desc>
    <g id="Page-1" stroke="none" stroke-width="1" fill="none" fill-rule="evenodd">
        <g id="Landing---Mobile" transform="translate(-16.000000, -22.000000)" fill="#46F5A0">
            <g id="top-bar">
                <g id="logo-lockup" transform="translate(16.000000, 22.000000)">
                    <g id="Group">
                        <path d="M126.093093,7.93364712 C126.093093,8.55148578 125.719936,8.92033588 125.094941,8.92033588 L118.969974,8.92033588 C119.172484,10.0846691 120.079732,11.2959192 121.651676,11.2959192 C122.828057,11.2959192 123.639545,10.9706168 124.282942,10.241424 C124.479659,10.02756 124.735672,9.90567694 124.986743,9.90567694 C125.564795,9.90567694 125.876696,10.386555 125.876696,10.8389629 C125.876696,11.0713578 125.764153,11.3105755 125.559854,11.5124786 C124.560935,12.4682544 123.319465,12.9129129 121.651676,12.9129129 C118.962306,12.9129129 117.084084,10.9679214 117.084084,8.1832253 C117.084084,5.3983607 118.962306,3.45345345 121.651676,3.45345345 C124.225094,3.45345345 126.093093,5.33771396 126.093093,7.93364712 Z M124.215978,7.35126995 C123.971297,6.46557486 123.305578,5.07044715 121.651676,5.07044715 C120.439768,5.07044715 119.596417,5.8426823 119.18407,6.71481611 C119.083114,6.92817471 119.008056,7.14768222 118.959665,7.36323084 L118.94876,7.42530952 L124.235999,7.42530952 L124.215978,7.35126995 Z M56.6538572,3.6316859 C57.2435219,3.6316859 57.6246246,4.01897927 57.6246246,4.6184501 L57.6246246,11.7479163 C57.6246246,12.3473871 57.2435219,12.7346805 56.6538572,12.7346805 C56.19521,12.7346805 55.8692997,12.4373456 55.7676838,11.9441741 C55.7420649,11.9719703 55.7157582,11.9990926 55.6890217,12.0255411 C55.0319569,12.674287 54.0378918,12.9129129 53.2702703,12.9129129 C51.9166807,12.9129129 50.7865259,12.4114025 50.0018824,11.4627949 C49.301575,10.6160223 48.9159159,9.45127837 48.9159159,8.18326741 C48.9159159,5.83280602 50.411527,3.45345345 53.2702703,3.45345345 C54.0690987,3.45345345 55.113456,3.71187365 55.7676838,4.42227649 C55.8692997,3.92893651 56.19521,3.6316859 56.6538572,3.6316859 Z M53.2702703,11.2959336 C54.7787768,11.2959336 55.792271,10.0449373 55.792271,8.18326741 C55.792271,6.32142908 54.7787768,5.07051698 53.2702703,5.07051698 C51.7616778,5.07051698 50.7481835,6.32142908 50.7481835,8.18326741 C50.7481835,10.0449373 51.7616778,11.2959336 53.2702703,11.2959336 Z M91.7086666,3.45345345 C94.2724292,3.45345345 96.0630631,5.3983607 96.0630631,8.1832253 C96.0630631,10.9679214 94.2724292,12.9129129 91.7086666,12.9129129 C89.144904,12.9129129 87.3543544,10.9679214 87.3543544,8.1832253 C87.3543544,5.3983607 89.144904,3.45345345 91.7086666,3.45345345 Z M91.7086666,11.2959192 C93.2635977,11.2959192 94.2682187,10.0741401 94.2682187,8.1832253 C94.2682187,6.29231049 93.2635977,5.07044715 91.7086666,5.07044715 C90.153904,5.07044715 89.1491987,6.29231049 89.1491987,8.1832253 C89.1491987,10.0741401 90.153904,11.2959192 91.7086666,11.2959192 Z M101.675641,3.45345345 C104.3665,3.45345345 105.972973,5.23076976 105.972973,8.20786559 C105.972973,11.0960575 104.286159,12.9621931 101.675641,12.9621931 C100.55472,12.9621931 99.7469489,12.4236047 99.2380385,11.8668968 L99.2380385,15.3924028 C99.2380385,15.9475866 98.846003,16.3663664 98.3261409,16.3663664 C97.8062788,16.3663664 97.4144144,15.9475866 97.4144144,15.3924028 L97.4144144,4.60649492 C97.4144144,4.05131113 97.8062788,3.63261601 98.3261409,3.63261601 C98.7130428,3.63261601 99.0531435,3.96122182 99.1778043,4.426655 C99.7502002,3.75615012 100.815849,3.45345345 101.675641,3.45345345 Z M101.693779,11.3545562 C103.254307,11.3545562 104.149434,10.2076957 104.149434,8.20786559 C104.149434,6.21938131 103.254307,5.07887107 101.693779,5.07887107 C100.132995,5.07887107 99.2380385,6.21938131 99.2380385,8.20786559 C99.2380385,10.2076957 100.132995,11.3545562 101.693779,11.3545562 Z M111.735701,3.45345345 C114.42656,3.45345345 116.033033,5.23076976 116.033033,8.20786559 C116.033033,11.0960575 114.346219,12.9621931 111.735701,12.9621931 C110.487638,12.9621931 109.807009,12.4236047 109.298099,11.8668968 L109.298099,15.3924028 C109.298099,15.9475866 108.906063,16.3663664 108.386201,16.3663664 C107.866424,16.3663664 107.474474,15.9475866 107.474474,15.3924028 L107.474474,4.60649492 C107.474474,4.05131113 107.866424,3.63261601 108.386201,3.63261601 C108.773103,3.63261601 109.113204,3.96122182 109.237864,4.426655 C109.81026,3.75615012 110.875909,3.45345345 111.735701,3.45345345 Z M111.753839,11.3545562 C113.314367,11.3545562 114.209495,10.2076957 114.209495,8.20786559 C114.209495,6.21938131 113.314367,5.07887107 111.753839,5.07887107 C110.193055,5.07887107 109.298099,6.21938131 109.298099,8.20786559 C109.298099,10.2076957 110.193055,11.3545562 111.753839,11.3545562 Z M131.271774,3.45345345 C131.684257,3.45345345 132.099484,3.53775655 132.476979,3.68318367 C132.790414,3.80397232 133,4.10212369 133,4.43830588 C133,4.97786284 132.476721,5.37551246 131.964419,5.20827985 C131.749259,5.13805589 131.517806,5.10148448 131.271774,5.10148448 C130.033124,5.10148448 129.572619,5.72998035 129.572619,7.42024878 L129.572619,11.9253133 C129.572619,12.4883069 129.179688,12.9129129 128.658639,12.9129129 C128.1291,12.9129129 127.744745,12.4976644 127.744745,11.9253133 L127.744745,7.05685266 C127.744745,4.63206563 128.898411,3.45345345 131.271774,3.45345345 Z M46.8873894,3.45345345 C47.2998723,3.45345345 47.7150994,3.53775655 48.0925941,3.68318367 C48.4060297,3.80397232 48.6156156,4.10212369 48.6156156,4.43830588 C48.6156156,4.97786284 48.0924226,5.37551246 47.5800348,5.20827985 C47.3649606,5.13805589 47.1334213,5.10148448 46.8873894,5.10148448 C45.6488258,5.10148448 45.1882342,5.72998035 45.1882342,7.42024878 L45.1882342,11.9253133 C45.1882342,12.4883069 44.7953035,12.9129129 44.2742544,12.9129129 C43.7447155,12.9129129 43.3603604,12.4976644 43.3603604,11.9253133 L43.3603604,7.05685266 C43.3603604,4.63206563 44.5140262,3.45345345 46.8873894,3.45345345 Z M79.996997,0.964614276 L79.996997,11.6479145 C79.996997,12.1978167 79.5450953,12.6126126 78.9459459,12.6126126 C78.3466979,12.6126126 77.8948949,12.1978167 77.8948949,11.6479145 L77.8948949,0.964614276 C77.8948949,0.414544285 78.3466979,1.42108547e-14 78.9459459,1.42108547e-14 C79.5450953,1.42108547e-14 79.996997,0.414544285 79.996997,0.964614276 Z M82.4165167,3.45345345 C84.728852,3.45345345 85.8528529,4.63206563 85.8528529,7.05685266 L85.8528529,11.9253133 C85.8528529,12.4976644 85.4783809,12.9129129 84.9624584,12.9129129 C84.4548074,12.9129129 84.0719804,12.4883069 84.0719804,11.9253133 L84.0719804,7.42024878 C84.0719804,5.72998035 83.6233158,5.10148448 82.4165167,5.10148448 C82.2724762,5.10148448 82.1335322,5.11479098 82.0001861,5.14071719 C81.5069057,5.23669566 81.048048,4.85913455 81.048048,4.34310004 C81.048048,3.97730017 81.2833254,3.64858678 81.6283042,3.55801676 C81.8845526,3.49071164 82.1509942,3.45345345 82.4165167,3.45345345 Z M37.3543122,3.45345345 C39.9180748,3.45345345 41.7087087,5.3983607 41.7087087,8.1832253 C41.7087087,10.9679214 39.9180748,12.9129129 37.3543122,12.9129129 C34.7905497,12.9129129 33,10.9679214 33,8.1832253 C33,5.3983607 34.7905497,3.45345345 37.3543122,3.45345345 Z M37.3543122,11.2959192 C38.9092433,11.2959192 39.9138644,10.0741401 39.9138644,8.1832253 C39.9138644,6.29231049 38.9092433,5.07044715 37.3543122,5.07044715 C35.7995496,5.07044715 34.7948443,6.29231049 34.7948443,8.1832253 C34.7948443,10.0741401 35.7995496,11.2959192 37.3543122,11.2959192 Z M40.8962994,13.8780311 C41.1632372,14.1497134 41.1798466,14.576863 40.934857,14.8718568 C40.1342978,15.8355147 38.9039264,16.3663664 37.4706822,16.3663664 L37.3881433,16.3663664 C35.9548991,16.3663664 34.7246124,15.8355147 33.9239684,14.8717711 C33.6790636,14.5769487 33.6955883,14.1497991 33.9625261,13.8781168 C34.2135324,13.6227184 34.6108037,13.5919506 34.9075707,13.8048397 C35.593728,14.2975531 36.4375057,14.5618648 37.3474671,14.5694068 C37.3564497,14.5695782 37.3643308,14.5701781 37.3722118,14.5708637 L37.3881433,14.5718922 L37.4039901,14.5708637 C37.4118711,14.5701781 37.4198369,14.5695782 37.4279721,14.5694068 L37.4309381,14.5694068 C37.4390733,14.5695782 37.4469544,14.5701781 37.4548354,14.5708637 L37.4706822,14.5718922 L37.4866137,14.5708637 C37.4944947,14.5701781 37.5023757,14.5695782 37.510511,14.5694068 C38.4214045,14.5618648 39.2650975,14.2975531 39.9513395,13.8048397 C40.248276,13.5918649 40.6455473,13.6227184 40.8962994,13.8780311 Z M63.7858229,7.39346998 C65.4722918,7.62401182 67.3843844,7.88546665 67.3843844,9.91216277 C67.3843844,11.7069693 65.7804795,12.9129129 63.393282,12.9129129 C62.2712132,12.9129129 61.3230484,12.6585335 60.56012,12.1552498 C60.0594535,11.8249778 60.0416456,11.1009231 60.509508,10.7265137 C60.8291131,10.4707024 61.2781452,10.466575 61.6142802,10.7007389 C62.1095787,11.0460041 62.7158997,11.2959192 63.4294091,11.2959192 C64.4051804,11.2959192 65.5684034,11.068157 65.5684034,9.98333846 C65.5684034,9.27646701 64.5393788,9.13142023 63.3479528,8.96329399 L63.2894167,8.95512353 C61.5658835,8.71691661 59.7267267,8.29651678 59.7267267,6.31168376 C59.7267267,4.33712699 61.5410888,3.45345345 63.3391766,3.45345345 C64.4612455,3.45345345 65.4454521,3.70791707 66.2084658,4.21111654 C66.7091322,4.54138858 66.7268549,5.26544327 66.2590777,5.63993688 C65.9394726,5.89566397 65.4904405,5.89979132 65.1543056,5.66562752 C64.659007,5.32044649 64.052686,5.07044715 63.3391766,5.07044715 C62.66827,5.07044715 61.5427929,5.22248516 61.5427929,6.24042384 C61.5427929,6.93297591 62.4010661,7.19502037 63.7858229,7.39346998 Z M72.6446366,7.39346998 C74.3310867,7.62401182 76.2432432,7.88546665 76.2432432,9.91216277 C76.2432432,11.7069693 74.639271,12.9129129 72.2521001,12.9129129 C71.1300437,12.9129129 70.1818895,12.6585335 69.4189695,12.1552498 C68.9182235,11.8249778 68.9005009,11.1009231 69.3682729,10.7265137 C69.6879597,10.4707024 70.1369868,10.466575 70.4730328,10.7007389 C70.968411,11.0460041 71.5748105,11.2959192 72.2881415,11.2959192 C73.263902,11.2959192 74.4271973,11.068157 74.4271973,9.98333846 C74.4271973,9.27646701 73.3981841,9.13142023 72.2067714,8.96329399 L72.148236,8.95512353 C70.4247219,8.71691661 68.5855856,8.29651678 68.5855856,6.31168376 C68.5855856,4.33712699 70.3999275,3.45345345 72.1980805,3.45345345 C73.3200517,3.45345345 74.3042474,3.70791707 75.0671673,4.21111654 C75.5679134,4.54138858 75.5856359,5.26544327 75.1178639,5.63993688 C74.7982623,5.89566397 74.3492353,5.89979132 74.013104,5.66562752 C73.5177258,5.32044649 72.9114115,5.07044715 72.1980805,5.07044715 C71.5270961,5.07044715 70.4015463,5.22248516 70.4015463,6.24042384 C70.4015463,6.93297591 71.2598952,7.19502037 72.6446366,7.39346998 Z M17.9343904,1.07029376 C18.1352016,1.17750466 18.3280622,1.39690378 18.3044309,1.76897052 C18.2807996,2.14103726 17.5068462,3.41919905 17.5653305,5.25152039 C19.2673404,5.25152039 20.6482058,6.62916254 20.6521833,8.33116777 L20.6522024,8.33116772 C20.6554652,9.72730859 20.6484221,10.9065608 20.6310732,11.8689243 C14.8239672,9.57921842 15.6680272,3.12973963 17.1911763,1.13196845 C17.4596276,0.974579185 17.7335791,0.963082864 17.9343904,1.07029376 Z M13.887892,5.71857409 C15.5818809,6.88153923 16.471699,8.78842376 16.5573463,11.4392277 C16.5597898,11.4647465 16.5610398,11.4906138 16.5610398,11.516773 L16.5610398,11.5761051 C16.5631384,11.6727788 16.5641877,11.7704231 16.5641877,11.8690381 L16.5610398,11.8690557 L16.5610398,14.7310587 C16.5610398,15.174859 16.2012686,15.5346302 15.7574683,15.5346302 C15.3136681,15.5346302 14.9538969,15.174859 14.9538969,14.7310587 L14.9538969,11.8777665 C14.4410855,11.8804369 13.9589405,11.8828307 13.5074618,11.8849478 L13.5074618,14.7310587 C13.5074618,15.174859 13.1476906,15.5346302 12.7038904,15.5346302 C12.2600901,15.5346302 11.9003189,15.174859 11.9003189,14.7310587 L11.9003189,11.8918085 C11.8695118,11.8919243 11.8389154,11.8920382 11.8085297,11.8921502 C11.7729084,12.0222944 11.7039785,12.145228 11.6017401,12.2474664 L8.62281505,15.2263915 C8.30900089,15.5402057 7.8002076,15.5402057 7.48639344,15.2263915 C7.17257928,14.9125773 7.17257928,14.4037841 7.48639344,14.0899699 L9.67926667,11.8970967 L9.6722826,11.8970968 C7.7812432,11.8970968 1.44678769,10.9260225 0,5.28571429 L6.24611887,5.28571429 C5.3559015,3.94284041 4.84623094,2.61625909 4.82142857,1.19533245 C8.60542004,2.73555548 9.97802844,2.89422113 12.8756885,4.87247889 C13.2429289,5.12319708 13.58033,5.40522882 13.887892,5.71857409 L13.887892,5.71857409 Z" id="logo-grasshopper-lockup"></path>
                    </g>
                </g>
            </g>
        </g>
    </g>
</svg>