<?xml version="1.0" encoding="UTF-8"?>
<svg width="163px" height="28px" viewBox="0 0 163 28" version="1.1" xmlns="http://www.w3.org/2000/svg" xmlns:xlink="http://www.w3.org/1999/xlink">
    <!-- Generator: Sketch 49.1 (51147) - http://www.bohemiancoding.com/sketch -->
    <title>Logo</title>
    <desc>Created with Sketch.</desc>
    <defs>
        <polygon id="path-1" points="8.5925663 0.097332678 8.5925663 15.4934335 0.155457103 15.4934335 0.155457103 0.097332678 8.5925663 0.097332678"></polygon>
        <polygon id="path-3" points="0 15.7890021 0 0.0972801698 14.2382426 0.0972801698 14.2382426 15.7890021"></polygon>
    </defs>
    <g id="Symbols" stroke="none" stroke-width="1" fill="none" fill-rule="evenodd">
        <g id="header" transform="translate(-38.000000, -37.000000)">
            <rect id="Rectangle-6" x="0" y="0" width="1440" height="100"></rect>
            <g id="Logo" transform="translate(38.000000, 37.000000)">
                <path d="M147.807886,12.0835343 L147.840309,12.2064035 L139.296032,12.2064035 L139.313623,12.1033124 C139.391748,11.7457316 139.513161,11.3818499 139.676138,11.0277697 C140.34253,9.58099405 141.705496,8.29996929 143.663973,8.29996929 C146.336614,8.29996929 147.412431,10.6141802 147.807886,12.0835343 M150.841317,13.049685 C150.841317,8.74331343 147.822718,5.61767602 143.663973,5.61767602 C139.317935,5.61767602 136.282606,8.84395412 136.282606,13.4636245 C136.282606,18.0829448 139.317935,21.309398 143.663973,21.309398 C146.359207,21.309398 148.365283,20.571833 149.979698,18.9862607 C150.30979,18.6512585 150.491737,18.2544716 150.491737,17.8690615 C150.491737,17.1183694 149.987631,16.3207701 149.053578,16.3207701 C148.647775,16.3207701 148.234039,16.5229266 147.91602,16.8778819 C146.87642,18.0874956 145.564847,18.6271047 143.663973,18.6271047 C141.123783,18.6271047 139.657512,16.6177914 139.330179,14.6863652 L149.228454,14.6863652 C150.238218,14.6863652 150.841317,14.0744698 150.841317,13.049685" id="Fill-1" fill="#00324B"></path>
                <path d="M32.9209304,18.6270697 C30.5050849,18.6270697 28.8818741,16.5519461 28.8818741,13.4635895 C28.8818741,10.3752329 30.5050849,8.30010931 32.9209304,8.30010931 C35.3367758,8.30010931 36.9598142,10.3752329 36.9598142,13.4635895 C36.9598142,16.5519461 35.3367758,18.6270697 32.9209304,18.6270697 M38.3396814,5.91326211 C37.6051664,5.91326211 37.0832969,6.406314 36.9204929,7.22474162 C35.8727872,6.04645788 34.2002523,5.61764101 32.9209304,5.61764101 C28.3427583,5.61764101 25.9474358,9.56468151 25.9474358,13.4635895 C25.9474358,15.5672425 26.5650217,17.4993688 27.686541,18.9039629 C28.9432705,20.4774582 30.7532575,21.309363 32.9209304,21.309363 C34.1500659,21.309363 35.7422336,20.9136263 36.7944233,19.8375585 C36.8373663,19.7936266 36.879447,19.7486446 36.9204929,19.7024374 C37.0832969,20.520515 37.6051664,21.0139169 38.3396814,21.0139169 C39.2840825,21.0139169 39.8942525,20.3712167 39.8942525,19.3768866 L39.8942525,7.55011736 C39.8942525,6.55578731 39.2840825,5.91326211 38.3396814,5.91326211" id="Fill-3" fill="#00324B"></path>
                <path d="M95.1708076,18.6270697 C92.6287201,18.6270697 90.9861935,16.6002536 90.9861935,13.4635895 C90.9861935,10.3269254 92.6287201,8.30010931 95.1708076,8.30010931 C97.7128952,8.30010931 99.3555942,10.3269254 99.3555942,13.4635895 C99.3555942,16.6002536 97.7128952,18.6270697 95.1708076,18.6270697 M95.1708076,5.61764101 C90.9791226,5.61764101 88.0517553,8.84391912 88.0517553,13.4635895 C88.0517553,18.0830849 90.9791226,21.309363 95.1708076,21.309363 C99.3624927,21.309363 102.28986,18.0830849 102.28986,13.4635895 C102.28986,8.84391912 99.3624927,5.61764101 95.1708076,5.61764101" id="Fill-5" fill="#00324B"></path>
                <path d="M111.465175,18.6564568 C108.953786,18.6564568 107.513384,16.7638866 107.513384,13.463572 C107.513384,10.1821603 108.953786,8.30009181 111.465175,8.30009181 C113.976392,8.30009181 115.416621,10.1821603 115.416621,13.463572 C115.416621,16.7638866 113.976392,18.6564568 111.465175,18.6564568 M111.436029,5.61762351 C110.05254,5.61762351 108.337752,6.1171514 107.416633,7.22367396 C107.21606,6.45565419 106.668666,5.91324461 106.046251,5.91324461 C105.209811,5.91324461 104.579118,6.60425236 104.579118,7.52052025 L104.579118,25.3197458 C104.579118,26.2360137 105.209811,26.9270215 106.046251,26.9270215 C106.882691,26.9270215 107.513384,26.2360137 107.513384,25.3197458 L107.513384,19.5020136 C108.332578,20.4207319 109.63225,21.3093455 111.436029,21.3093455 C115.636682,21.3093455 118.351059,18.2297402 118.351059,13.463572 C118.351059,8.5507309 115.766028,5.61762351 111.436029,5.61762351" id="Fill-7" fill="#00324B"></path>
                <path d="M127.655875,18.6564568 C125.144486,18.6564568 123.704257,16.7638866 123.704257,13.463572 C123.704257,10.1821603 125.144486,8.30009181 127.655875,8.30009181 C130.167092,8.30009181 131.607493,10.1821603 131.607493,13.463572 C131.607493,16.7638866 130.167092,18.6564568 127.655875,18.6564568 M127.626729,5.61762351 C126.24324,5.61762351 124.528452,6.1171514 123.607333,7.22367396 C123.40676,6.45565419 122.859539,5.91324461 122.236952,5.91324461 C121.400512,5.91324461 120.769819,6.60425236 120.769819,7.52052025 L120.769819,25.3197458 C120.769819,26.2360137 121.400512,26.9270215 122.236952,26.9270215 C123.073392,26.9270215 123.704257,26.2360137 123.704257,25.3197458 L123.704257,19.5020136 C124.523278,20.4207319 125.618583,21.3093455 127.626729,21.3093455 C131.827555,21.3093455 134.541759,18.2297402 134.541759,13.463572 C134.541759,8.5507309 131.956729,5.61762351 127.626729,5.61762351" id="Fill-9" fill="#00324B"></path>
                <g id="Group-13" transform="translate(153.491038, 5.520361)">
                    <mask id="mask-2" fill="white">
                        <use xlink:href="#path-1"></use>
                    </mask>
                    <g id="Clip-12"></g>
                    <path d="M5.81806919,0.097332678 C6.48032266,0.097332678 7.14688767,0.234554076 7.75309104,0.471366005 C8.25616223,0.667746628 8.59263528,1.15309731 8.59263528,1.70023263 C8.59263528,2.57834457 7.75274612,3.22577052 6.93010314,2.95342806 C6.58466207,2.83931026 6.21317926,2.77962595 5.81806919,2.77962595 C3.8294117,2.77962595 3.09006779,3.80266048 3.09006779,6.55356446 L3.09006779,13.8861579 C3.09006779,14.8024258 2.45920237,15.4934335 1.62276245,15.4934335 C0.77252557,15.4934335 0.155457103,14.8176532 0.155457103,13.8861579 L0.155457103,5.96214723 C0.155457103,2.01563182 2.00769727,0.097332678 5.81806919,0.097332678" id="Fill-11" fill="#00324B" mask="url(#mask-2)"></path>
                </g>
                <path d="M22.4536349,5.61769352 C23.1158884,5.61769352 23.7824534,5.75491492 24.3886567,5.99172685 C24.8917279,6.18810747 25.228201,6.67345815 25.228201,7.22059347 C25.228201,8.09870541 24.3883118,8.74613137 23.5656688,8.4737889 C23.2202278,8.3596711 22.848745,8.29998679 22.4536349,8.29998679 C20.4649774,8.29998679 19.7256335,9.32302133 19.7256335,12.0739253 L19.7256335,19.4065187 C19.7256335,20.3227866 19.0947681,21.0137944 18.2583281,21.0137944 C17.4080913,21.0137944 16.7911953,20.338014 16.7911953,19.4065187 L16.7911953,11.4825081 C16.7911953,7.53599266 18.643263,5.61769352 22.4536349,5.61769352" id="Fill-14" fill="#00324B"></path>
                <path d="M75.9460378,7.47513567 L75.9460378,5.27906821 L75.9460378,1.60734565 C75.9460378,0.690727712 75.3151724,7.00109175e-05 74.4787325,7.00109175e-05 C73.6422926,7.00109175e-05 73.0115996,0.690727712 73.0115996,1.60734565 L73.0115996,19.4063962 C73.0115996,20.3226641 73.6422926,21.0138469 74.4787325,21.0138469 C75.3151724,21.0138469 75.9460378,20.3226641 75.9460378,19.4063962 L75.9460378,14.2005594 L75.9460378,13.8478794 L75.9460378,7.47513567 Z" id="Fill-16" fill="#00324B"></path>
                <path d="M79.8975008,5.61769352 C79.4599651,5.61769352 79.0208772,5.67825296 78.5986907,5.78782005 C78.0302564,5.93519303 77.6423898,6.47025147 77.6423898,7.06569432 C77.6423898,7.90530025 78.3986349,8.52017113 79.2114476,8.36387176 C79.431164,8.32169018 79.6601933,8.29998679 79.8975008,8.29998679 C81.8861583,8.29998679 82.6255022,9.3228463 82.6255022,12.0739253 L82.6255022,19.4065187 C82.6255022,20.3227866 83.2563676,21.0137944 84.0928075,21.0137944 C84.9430444,21.0137944 85.5601129,20.337839 85.5601129,19.4065187 L85.5601129,11.4825081 C85.5601129,7.53599266 83.7080452,5.61769352 79.8975008,5.61769352" id="Fill-18" fill="#00324B"></path>
                <g id="Group-22" transform="translate(0.000000, 5.520361)">
                    <mask id="mask-4" fill="white">
                        <use xlink:href="#path-3"></use>
                    </mask>
                    <g id="Clip-21"></g>
                    <path d="M7.11901784,13.1067089 C4.5769303,13.1067089 2.93440373,11.0798928 2.93440373,7.94322866 C2.93440373,4.80656453 4.5769303,2.77974847 7.11901784,2.77974847 C9.66127783,2.77974847 11.3038044,4.80656453 11.3038044,7.94322866 C11.3038044,11.0798928 9.66127783,13.1067089 7.11901784,13.1067089 M7.11901784,0.0972801698 C2.92733279,0.0972801698 -3.44923682e-05,3.32355827 -3.44923682e-05,7.94322866 C-3.44923682e-05,12.562724 2.92733279,15.7890021 7.11901784,15.7890021 C11.3107029,15.7890021 14.2382426,12.562724 14.2382426,7.94322866 C14.2382426,3.32355827 11.3107029,0.0972801698 7.11901784,0.0972801698" id="Fill-20" fill="#00324B" mask="url(#mask-4)"></path>
                </g>
                <path d="M12.8185712,22.9919353 C12.4112164,22.5757204 11.7656917,22.5253126 11.2833159,22.8727418 C10.1683501,23.675767 8.79779589,24.1068592 7.31790083,24.1191111 C7.30462127,24.1194612 7.29185909,24.1203363 7.27892446,24.1215615 L7.25305518,24.1231367 L7.22735837,24.1215615 C7.21459619,24.1203363 7.20183401,24.1194612 7.18855445,24.1191111 L7.18355306,24.1191111 C7.17044596,24.1194612 7.15751132,24.1203363 7.14474914,24.1215615 L7.11905233,24.1231367 L7.09318305,24.1215615 C7.08024842,24.1203363 7.06748624,24.1194612 7.05299944,24.1191111 C5.57448408,24.1068592 4.20358491,23.675767 3.08879157,22.8727418 C2.60676073,22.5254876 1.96123605,22.5757204 1.55353626,22.9921104 C1.11979473,23.4349294 1.09289069,24.131363 1.49093261,24.611988 C2.79163982,26.183383 4.79047255,27.048718 7.11905233,27.048718 L7.25305518,27.048718 C9.58163496,27.048718 11.5804677,26.183383 12.8811749,24.612163 C13.2792168,24.131363 13.2523128,23.4349294 12.8185712,22.9919353 Z" id="Fill-23" fill="#00324B"></path>
                <path d="M49.9288757,12.161474 C47.6911833,11.8322476 46.3044176,11.3974798 46.3044176,10.2486007 C46.3044176,8.56011236 48.1232002,8.30789803 49.2071229,8.30789803 C50.3600303,8.30789803 51.339786,8.72271271 52.1401814,9.29522699 C52.6832637,9.68378758 53.4088107,9.67678649 53.9251615,9.25252033 C54.6812342,8.63152349 54.652433,7.43031118 53.8434145,6.88247575 C52.6106573,6.04759556 51.0203867,5.62560475 49.2071229,5.62560475 C46.3016582,5.62560475 43.3699794,7.09145834 43.3699794,10.3670941 C43.3699794,13.6595326 46.3418418,14.3568413 49.1267557,14.7518779 L49.2212647,14.76553 C51.1466287,15.0445235 52.8091609,15.2851861 52.8091609,16.4576939 C52.8091609,18.2573245 50.9296717,18.6350334 49.3528531,18.6350334 C48.2001182,18.6350334 47.2203625,18.2203938 46.4199671,17.6477045 C45.8768847,17.2591439 45.1511653,17.266145 44.6348145,17.6905862 C43.8789143,18.311583 43.907543,19.5126203 44.7165615,20.0604557 C45.9494912,20.8953359 47.4814697,21.3173267 49.294561,21.3173267 C53.152015,21.3173267 55.7435991,19.3167647 55.7435991,16.3395505 C55.7435991,12.9776262 52.6539452,12.5439086 49.9288757,12.161474" id="Fill-25" fill="#00324B"></path>
                <path d="M64.390077,12.161474 C62.1523846,11.8322476 60.7656189,11.3974798 60.7656189,10.2486007 C60.7656189,8.56011236 62.584229,8.30789803 63.6683242,8.30789803 C64.8212316,8.30789803 65.8009873,8.72271271 66.6012102,9.29522699 C67.144465,9.68378758 67.870012,9.67678649 68.3863628,9.25252033 C69.142263,8.63152349 69.1136343,7.43031118 68.3046158,6.88247575 C67.0716861,6.04759556 65.4814155,5.62560475 63.6683242,5.62560475 C60.7628595,5.62560475 57.8311807,7.09145834 57.8311807,10.3670941 C57.8311807,13.6595326 60.8028707,14.3568413 63.587957,14.7518779 L63.682466,14.76553 C65.6076576,15.0445235 67.2703622,15.2851861 67.2703622,16.4576939 C67.2703622,18.2573245 65.3907006,18.6350334 63.8140544,18.6350334 C62.6613195,18.6350334 61.6813913,18.2203938 60.8811684,17.6477045 C60.3379136,17.2591439 59.6123666,17.266145 59.0960158,17.6905862 C58.3401156,18.311583 58.3687443,19.5126203 59.1777628,20.0604557 C60.4106925,20.8953359 61.942671,21.3173267 63.7557623,21.3173267 C67.6130439,21.3173267 70.2048004,19.3167647 70.2048004,16.3395505 C70.2048004,12.9776262 67.1151465,12.5439086 64.390077,12.161474" id="Fill-27" fill="#00324B"></path>
            </g>
        </g>
    </g>
</svg>