<?xml version="1.0" encoding="UTF-8"?>
<svg width="178px" height="520px" viewBox="0 0 178 520" version="1.1" xmlns="http://www.w3.org/2000/svg" xmlns:xlink="http://www.w3.org/1999/xlink">
    <!-- Generator: Sketch 49.1 (51147) - http://www.bohemiancoding.com/sketch -->
    <title>Page 1</title>
    <desc>Created with Sketch.</desc>
    <defs>
        <path d="M3.10066397,1.81360755 L0.628469636,1.38113983 C0.656259109,2.84318217 2.15689069,4.30174622 3.81891498,4.59276337 L2.89331174,5.32088596 C2.68595951,5.48320628 2.76291498,5.83799213 3.01515789,5.88205051 C3.08997571,5.89480425 3.16693117,5.87509392 3.22892308,5.82639782 L4.61412146,4.7365328 C4.62053441,4.74001109 4.62160324,4.74117052 4.62908502,4.74696768 L4.47089879,5.80900636 C4.44524696,5.9794427 4.5457166,6.14640075 4.70069636,6.17654595 C4.85995142,6.20669115 5.00958704,6.09074807 5.03523887,5.91799286 L5.19556275,4.83276556 L5.76204049,4.93131719 L5.60278543,6.00610961 C5.5771336,6.17654595 5.67760324,6.34466343 5.832583,6.3736492 C5.99076923,6.40495383 6.14147368,6.28785132 6.16712551,6.11509611 L6.32851822,5.03102824 C6.55724696,3.48550688 5.88709312,2.10114641 4.5788502,1.23273268 L2.81956275,0.0814178129 C2.72123077,0.743452846 2.89438057,1.52027154 3.10066397,1.81360755 Z M7.14403239,0.981136176 C6.83727935,1.39621243 6.63099595,1.88781112 6.55297166,2.41535218 C6.38730364,3.53304354 6.86293117,4.64725662 7.75540081,5.22697206 L7.86869636,5.30001621 L8.1262834,3.56318875 C8.19682591,3.09361924 7.90289879,2.65187607 7.47216194,2.5776725 L7.11303644,2.51506323 C7.17716599,2.07679836 7.33642105,1.66867869 7.55766802,1.30461739 C7.6602753,1.13765934 7.56728745,0.910410892 7.38451822,0.879106259 C7.37062348,0.876787397 7.35779757,0.875627966 7.34390283,0.875627966 C7.26694737,0.875627966 7.19319838,0.913889185 7.14403239,0.981136176 Z" id="path-1"></path>
        <path d="M3.10066397,1.81360755 L0.628469636,1.38113983 C0.656259109,2.84318217 2.15689069,4.30174622 3.81891498,4.59276337 L2.89331174,5.32088596 C2.68916599,5.48088742 2.76184615,5.82871669 3.00553846,5.87973165 L3.02263968,5.88320994 C3.09531984,5.89364482 3.16906883,5.87277506 3.22892308,5.82639782 L4.61412146,4.7365328 C4.62053441,4.74001109 4.62160324,4.74117052 4.62908502,4.74696768 L4.47089879,5.80900636 C4.44524696,5.9794427 4.5457166,6.14640075 4.70069636,6.17654595 C4.85995142,6.20669115 5.00958704,6.09074807 5.03523887,5.91799286 L5.19556275,4.83276556 L5.76204049,4.93131719 L5.60278543,6.00610961 C5.5771336,6.17654595 5.67760324,6.34466343 5.832583,6.3736492 C5.99076923,6.40495383 6.14147368,6.28785132 6.16712551,6.11509611 L6.32851822,5.03102824 C6.55724696,3.48550688 5.88709312,2.10114641 4.5788502,1.23273268 L2.82063158,0.0825772438 L2.81849393,0.0814178129 C2.72123077,0.744612276 2.89438057,1.52027154 3.10066397,1.81360755 Z M7.14403239,0.981136176 C6.83727935,1.39621243 6.63099595,1.88781112 6.55297166,2.41535218 C6.38730364,3.53304354 6.86293117,4.64725662 7.75540081,5.22697206 L7.86869636,5.30001621 L8.1262834,3.56318875 C8.19682591,3.09361924 7.90289879,2.65187607 7.47216194,2.5776725 L7.11303644,2.51506323 C7.17716599,2.07679836 7.33642105,1.66867869 7.55766802,1.30461739 C7.6602753,1.13765934 7.56728745,0.910410892 7.38451822,0.879106259 C7.37062348,0.876787397 7.35779757,0.876787397 7.34390283,0.876787397 C7.26694737,0.876787397 7.19319838,0.913889185 7.14403239,0.981136176 Z" id="path-3"></path>
    </defs>
    <g id="Home" stroke="none" stroke-width="1" fill="none" fill-rule="evenodd">
        <g id="home---mobile---ios" transform="translate(-98.000000, -6496.000000)">
            <g id="Group-2" transform="translate(0.000000, 6470.000000)">
                <g id="Group-21" transform="translate(99.000000, 27.000000)">
                    <g id="Page-1">
                        <g id="Group-55">
                            <path d="M173.368735,346.268114 L112.583932,163.174773 C102.564022,170.915515 94.199203,180.382339 87.7556119,190.970195 C81.3110494,180.382339 72.9462307,170.915515 62.9263202,163.174773 L2.14151791,346.268114 C36.9013607,345.564322 69.4757829,327.158277 87.7556119,297.123693 C106.035441,327.158277 138.60792,345.564322 173.368735,346.268114" id="Fill-1" fill="#35C733"></path>
                            <polyline id="Stroke-3" stroke="#03324B" stroke-width="2" points="95.1934237 266.894332 103.247427 412.295601 93.4217761 517.897295 104.064289 517.921497"></polyline>
                            <polyline id="Stroke-5" stroke="#03324B" stroke-width="2" points="79.9354 266.861224 71.2393687 412.224738 80.5987966 517.869027 69.956284 517.846762"></polyline>
                            <path d="M90.5501334,129.199632 C89.67208,129.143484 88.7872275,129.116377 87.8975185,129.116377 C87.0087808,129.116377 86.1239283,129.143484 85.2458749,129.199632 C51.6253647,131.309071 30.419986,175.213292 43.325623,213.702091 L43.5014279,214.231629 C48.7017576,229.898985 53.7058851,245.639914 57.9077204,261.601565 C61.3985655,274.861314 73.484427,284.644698 87.8839203,284.644698 C102.380543,284.644698 114.531482,274.728687 117.929082,261.333408 C121.964826,245.427906 127.084538,229.814762 132.248929,214.23647 L132.402394,213.774697 C145.386707,175.292675 124.195897,131.311008 90.5501334,129.199632" id="Fill-7" fill="#C3F6A2"></path>
                            <path d="M57.4136211,110.34285 C52.3958954,116.824125 49.3790437,124.924024 49.3790437,133.744172 C49.3790437,154.938278 66.6186126,172.120674 87.8842117,172.120674 C109.149811,172.120674 126.388408,154.938278 126.388408,133.744172 C126.388408,124.924024 123.372528,116.824125 118.354802,110.34285 L57.4136211,110.34285 Z" id="Fill-9" fill="#35C733"></path>
                            <path d="M69.2890022,122.699093 C69.2890022,130.659589 62.8133582,137.113757 54.8263745,137.113757 C46.8384195,137.113757 40.3637468,130.659589 40.3637468,122.699093 C40.3637468,114.737629 46.8384195,108.283461 54.8263745,108.283461 C62.8133582,108.283461 69.2890022,114.737629 69.2890022,122.699093" id="Fill-11" fill="#FFFFFF"></path>
                            <path d="M57.9255923,122.699093 C57.9255923,124.404844 56.5385787,125.787258 54.8261802,125.787258 C53.1147531,125.787258 51.7267682,124.404844 51.7267682,122.699093 C51.7267682,120.992373 53.1147531,119.60996 54.8261802,119.60996 C56.5385787,119.60996 57.9255923,120.992373 57.9255923,122.699093" id="Fill-13" fill="#03324B"></path>
                            <path d="M135.404385,122.699093 C135.404385,130.659589 128.928741,137.113757 120.941758,137.113757 C112.953803,137.113757 106.47913,130.659589 106.47913,122.699093 C106.47913,114.737629 112.953803,108.283461 120.941758,108.283461 C128.928741,108.283461 135.404385,114.737629 135.404385,122.699093" id="Fill-15" fill="#FFFFFF"></path>
                            <path d="M124.040684,122.699093 C124.040684,124.404844 122.65367,125.787258 120.941272,125.787258 C119.229845,125.787258 117.842831,124.404844 117.842831,122.699093 C117.842831,120.992373 119.229845,119.60996 120.941272,119.60996 C122.65367,119.60996 124.040684,120.992373 124.040684,122.699093" id="Fill-17" fill="#03324B"></path>
                            <path d="M102.346839,120.639122 C102.346839,128.600586 95.8711955,135.054754 87.8842117,135.054754 C79.8962567,135.054754 73.421584,128.600586 73.421584,120.639122" id="Stroke-19" stroke="#03324B" stroke-width="2"></path>
                            <path d="M67.6724709,6.69531624 C67.6724709,3.33899383 70.4270721,0.594495988 73.7935911,0.594495988 C77.1601101,0.594495988 79.91374,3.33899383 79.91374,6.69531624 L79.91374,110.167241" id="Stroke-21" stroke="#03324B" stroke-width="2"></path>
                            <path d="M107.837879,6.69531624 C107.837879,3.33899383 105.083277,0.594495988 101.716758,0.594495988 C98.3502394,0.594495988 95.5966095,3.33899383 95.5966095,6.69531624 L95.5966095,110.167241" id="Stroke-23" stroke="#03324B" stroke-width="2"></path>
                            <path d="M40.8054931,200.822119 L11.3635071,200.822119 C5.08795049,200.822119 0.00029138941,205.892906 0.00029138941,212.148619 C0.00029138941,218.403363 5.08795049,223.474149 11.3635071,223.474149 L63.986492,223.474149 L66.3807417,217.296851" id="Stroke-25" stroke="#03324B" stroke-width="2"></path>
                            <path d="M42.7941287,169.509964 L11.3638956,169.509964 C5.08736772,169.509964 -0.00029138941,174.579783 -0.00029138941,180.835495 C-0.00029138941,187.09024 5.08736772,192.161026 11.3638956,192.161026 L68.5335266,192.161026 L70.9277763,185.983728" id="Stroke-27" stroke="#03324B" stroke-width="2"></path>
                            <path d="M52.4933166,209.763664 C46.7791703,211.784041 40.7192419,210.100555 38.2502022,205.807134 L24.7860689,182.395164 C21.7449347,177.109464 25.3329097,170.128662 32.3699639,167.640705 L41.4875386,164.417009 C48.5236216,161.93002 55.7228826,165.096599 56.7048649,171.11126 L61.0514236,197.745958 C61.8488593,202.629906 58.207463,207.743288 52.4933166,209.763664" id="Fill-29" fill="#CCCCCC"></path>
                            <path d="M61.0515207,197.745862 L57.3683586,175.177086 C46.9511872,179.844185 39.0108257,189.45622 37.0934834,201.539755 C36.9924684,202.172877 36.9497313,202.802127 36.8846543,203.433313 L38.2502994,205.807038 C40.719339,210.100458 46.7802387,211.783944 52.4934138,209.763568 C58.2075601,207.743191 61.8489564,202.629809 61.0515207,197.745862" id="Fill-31" fill="#ABABAB"></path>
                            <path d="M20.2975064,148.471331 C19.8186565,147.124736 20.5315892,145.633898 21.8816935,145.156636 C23.2317978,144.679374 24.7285681,145.389943 25.2064467,146.73557 L33.6722804,170.520249" id="Stroke-33" stroke="#03324B" stroke-width="2"></path>
                            <path d="M39.2660829,141.989766 C38.7872329,140.643172 37.2904627,139.933571 35.9403584,140.410833 C34.5902541,140.888095 33.8773214,142.378933 34.3571426,143.725528 L42.822005,167.510208" id="Stroke-35" stroke="#03324B" stroke-width="2"></path>
                            <path d="M43.8462387,173.690507 L48.9970322,165.323419 C50.7851919,162.420157 47.9169488,158.889581 44.6961245,160.029007 L27.1039745,166.248901 C23.8821789,167.386391 23.8870354,171.929576 27.1117449,173.062226 L36.400268,176.322708 C39.1946925,177.302402 42.2970184,176.206539 43.8462387,173.690507" id="Fill-37" fill="#35C733"></path>
                            <path d="M29.7980639,167.155021 C30.9344826,170.347738 29.2589935,173.854112 26.0546813,174.986762 C22.8523116,176.119412 19.3342702,174.448512 18.1978515,171.255794 C17.0614328,168.063077 18.7369219,164.556702 21.9402628,163.424053 C25.1436037,162.292371 28.6616452,163.962303 29.7980639,167.155021" id="Fill-39" fill="#FFFFFF"></path>
                            <path d="M25.2408306,168.765901 C25.4846264,169.450331 25.1252462,170.201559 24.4385385,170.443578 C23.752802,170.686565 22.9981035,170.329345 22.755279,169.644914 C22.5114832,168.960484 22.8708634,168.210224 23.5565998,167.967237 C24.2433076,167.72425 24.9970348,168.082438 25.2408306,168.765901" id="Fill-41" fill="#03324B"></path>
                            <path d="M54.7776153,158.324127 C55.914034,161.516844 54.2385449,165.023219 51.0342327,166.155869 C47.8318631,167.288519 44.3138216,165.617618 43.1774029,162.4249 C42.0409842,159.232183 43.7164733,155.725809 46.9198142,154.593159 C50.1231552,153.461477 53.6411966,155.13141 54.7776153,158.324127" id="Fill-43" fill="#FFFFFF"></path>
                            <path d="M50.2203821,159.935104 C50.4641779,160.619534 50.1047976,161.369794 49.4180899,161.612781 C48.7323535,161.855768 47.9776549,161.49758 47.7348304,160.814117 C47.4910346,160.129687 47.8504149,159.378459 48.5361513,159.135472 C49.222859,158.893453 49.9765863,159.250673 50.2203821,159.935104" id="Fill-45" fill="#03324B"></path>
                            <path d="M42.3580159,164.108967 C43.4215872,167.098388 41.8529409,170.381137 38.8545439,171.440213 C35.8561469,172.500257 32.5624752,170.937781 31.4989039,167.94836" id="Stroke-47" stroke="#03324B" stroke-width="2"></path>
                            <path d="M11.3635071,169.509964 C5.08795049,169.509964 0.00029138941,174.579783 0.00029138941,180.835495 C0.00029138941,187.09024 5.08795049,192.161026 11.3635071,192.161026 L68.5341094,192.161026 L70.9283591,185.983728" id="Stroke-49" stroke="#03324B" stroke-width="2"></path>
                            <path d="M113.796792,232.489752 L100.600737,230.3716 C98.7785819,230.079241 97.5392056,228.369617 97.8325376,226.552537 L102.030488,200.576131 C102.32382,198.760019 104.039132,197.524753 105.861287,197.81808 L119.058314,199.936232 C120.879497,200.228592 122.119845,201.937247 121.825542,203.754327 L117.627592,229.730733 C117.33426,231.546845 115.618947,232.78308 113.796792,232.489752" id="Fill-51" fill="#FFFFFF"></path>
                            <path d="M113.632934,209.104694 L113.306578,209.052418 C113.365827,208.687453 113.509579,208.34669 113.711609,208.042714 C113.803883,207.903311 113.71938,207.713568 113.553288,207.68743 C113.470727,207.673877 113.387196,207.706792 113.334746,207.772621 C113.055983,208.118224 112.868523,208.528689 112.797618,208.970132 C112.647067,209.903358 113.080266,210.83368 113.890328,211.317718 L113.993286,211.378707 L114.227368,209.928528 C114.291474,209.536457 114.024367,209.167619 113.632934,209.104694 M112.593645,211.154113 L112.446979,212.060233 C112.423668,212.203508 112.287686,212.301284 112.143934,212.274178 C112.002125,212.249976 111.910823,212.109605 111.934134,211.968266 L112.078857,211.070859 L111.565041,210.988572 L111.418375,211.894692 C111.395063,212.037967 111.25811,212.135743 111.114358,212.109605 C110.97352,212.084435 110.882218,211.946 110.905529,211.803693 L111.049281,210.915966 C111.042482,210.912094 111.042482,210.911126 111.035683,210.907254 L109.776881,211.818214 C109.720546,211.858873 109.651583,211.874362 109.582621,211.864682 C109.353395,211.827895 109.283461,211.531663 109.471893,211.395164 L110.313037,210.78818 C108.80364,210.545193 107.438967,209.326384 107.413713,208.106607 L109.660325,208.4677 C109.472865,208.222776 109.315514,207.574165 109.404874,207.021393 L111.00363,207.982693 C112.192499,208.707783 112.801503,209.863667 112.593645,211.154113" id="Fill-53" fill="#03324B"></path>
                        </g>
                        <g id="Group-58" transform="translate(106.170040, 207.342503)">
                            <mask id="mask-2" fill="white">
                                <use xlink:href="#path-1"></use>
                            </mask>
                            <g id="Clip-57"></g>
                            <polygon id="Fill-56" fill="#022335" mask="url(#mask-2)" points="0.0376226721 5.36088633 7.66155789 6.69307241 8.49631093 1.07331093 0.872375709 -0.25887515"></polygon>
                        </g>
                        <g id="Group-61" transform="translate(106.170040, 207.342503)">
                            <mask id="mask-4" fill="white">
                                <use xlink:href="#path-3"></use>
                            </mask>
                            <g id="Clip-60"></g>
                            <polygon id="Fill-59" fill="#022335" mask="url(#mask-4)" points="-0.529603239 5.80575996 8.07230769 7.30838238 9.06417814 0.628901075 0.462267206 -0.874880777"></polygon>
                        </g>
                        <g id="Group-66" transform="translate(104.032389, 168.866575)" stroke="#03324B" stroke-width="2">
                            <path d="M30.5430543,31.7861402 L60.0225439,31.7861402 C66.3060944,31.7861402 71.4002342,36.9178671 71.4002342,43.2487605 C71.4002342,49.5786742 66.3060944,54.7104012 60.0225439,54.7104012 L7.33252706,54.7104012 L4.93522757,48.4588644" id="Stroke-62"></path>
                            <path d="M28.5518855,0.0976772008 L60.0221549,0.0976772008 C66.3066779,0.0976772008 71.4008178,5.22842445 71.4008178,11.5593178 C71.4008178,17.8892315 66.3066779,23.0209585 60.0221549,23.0209585 L2.77970036,23.0209585 L0.382400875,16.7694217" id="Stroke-64"></path>
                        </g>
                    </g>
                </g>
            </g>
        </g>
    </g>
</svg>