<?xml version="1.0" encoding="UTF-8"?>
<svg width="160px" height="252px" viewBox="0 0 160 252" version="1.1" xmlns="http://www.w3.org/2000/svg" xmlns:xlink="http://www.w3.org/1999/xlink">
    <!-- Generator: Sketch 58 (84663) - https://sketch.com -->
    <title>grasshopper__practice__meditate</title>
    <desc>Created with Sketch.</desc>
    <g id="Round-3" stroke="none" stroke-width="1" fill="none" fill-rule="evenodd">
        <g id="Home---Desktop" transform="translate(-140.000000, -2488.000000)">
            <g id="Callout" transform="translate(0.000000, 2420.000000)">
                <g id="grasshopper-/-practice-/-meditate-active" transform="translate(140.000000, 68.000000)">
                    <g id="Group">
                        <path d="M70.9565217,112.813161 L72.840163,112.963501 L70.9565217,112.813161 Z" id="Fill-144" fill="#03324B"></path>
                        <path d="M82.399389,73.502477 L80.6956522,73.4991343 L80.8350255,4.60957369 C80.8375875,3.37946265 81.2828649,2.22233375 82.0893858,1.34933375 C82.8928322,0.479119334 83.9565789,3.55271368e-15 85.083351,3.55271368e-15 L85.0935991,3.55271368e-15 C86.2249828,0.00278557752 87.2892419,0.486361836 88.0921759,1.36381876 C88.89511,2.24016145 89.3357758,3.39951881 89.3332249,4.62962985 L87.6299893,4.62573004 C87.6315265,3.89033757 87.367127,3.19617165 86.8854691,2.67081173 C86.4038112,2.14433758 85.7658706,1.8540804 85.0894999,1.85240905 L85.0838634,1.85240905 C83.6829562,1.85240905 82.5418368,3.08920548 82.5387624,4.6134735 L82.399389,73.502477 Z" id="Fill-153" fill="#03324B"></path>
                        <path d="M75.2785096,73.502477 L73.5473519,73.4985781 L73.6884902,4.62523544 C73.6905735,3.89001015 73.4218378,3.19544505 72.9322806,2.67020456 C72.4427234,2.1438501 71.7948413,1.8536589 71.1073779,1.85198794 L71.1016491,1.85198794 C69.6777667,1.85198794 68.517412,3.08906018 68.5142871,4.61242469 L66.7826087,4.60908276 C66.7883376,2.06531467 68.7246926,3.55271368e-15 71.1011283,3.55271368e-15 L71.1115444,3.55271368e-15 C73.4926673,0.00556988853 75.4258975,2.08258132 75.4201814,4.62857737 L75.2785096,73.502477 Z" id="Fill-156" fill="#03324B"></path>
                        <path d="M126.269357,158.678193 C104.612313,158.228956 84.6013137,144.048572 77.4088587,121.848096 C70.2164037,99.64762 77.9964077,76.0749555 95.1169511,62.5211201 C111.488599,85.0882489 121.592323,102.291733 125.428125,114.131573 C128.51508,123.659972 128.795491,138.508845 126.269357,158.678193 Z" id="Fill-159" fill="#35C733" transform="translate(101.354165, 110.599656) rotate(-30.000000) translate(-101.354165, -110.599656) "></path>
                        <path d="M48.1756697,142.071103 C21.623774,135.971115 8.34782609,136.313317 8.34782609,143.097708 C8.34782609,149.882098 42.2028986,155.640454 109.913043,160.372777 L112.695652,168.27307" id="Path-18" stroke="#00324B" stroke-width="2.08695652"></path>
                        <path d="M76.0017567,142.071103 C49.4498609,135.971115 36.173913,136.313317 36.173913,143.097708 C36.173913,149.882098 70.0289855,155.640454 137.73913,160.372777 L140.521739,168.27307" id="Path-18" stroke="#00324B" stroke-width="2.08695652" transform="translate(88.347826, 153.006100) scale(-1, 1) translate(-88.347826, -153.006100) "></path>
                        <path d="M121.043478,111.304348 C121.043478,136.661589 100.798587,157.217391 75.826087,157.217391 C50.8530462,157.217391 30.6086957,136.661589 30.6086957,111.304348 C30.6086957,85.9471064 50.8530462,65.3913043 75.826087,65.3913043 C100.798587,65.3913043 121.043478,85.9471064 121.043478,111.304348" id="Fill-162" fill="#C1F89A"></path>
                        <ellipse id="Oval" fill="#00324B" opacity="0.200000003" cx="80" cy="243.478261" rx="80" ry="8.34782609"></ellipse>
                        <path d="M46.4611331,89.6847032 C52.7238017,89.6847032 50.7271387,50.8684228 45.871396,50.8684228 C44.1314111,50.8684228 41.9032379,49.0573378 39.4719177,50.9493755 C35.1181989,54.3374114 30.6086957,63.1837212 30.6086957,69.9436182 C30.6086957,77.3492549 35.6823118,85.2752361 40.4998751,88.4357893 C42.5355697,89.7713028 44.6008674,89.6847032 46.4611331,89.6847032 Z" id="Oval" fill="#0096FF"></path>
                        <path d="M33.8495853,83.0976614 C37.8786511,83.0976614 36.9735103,58.4347826 33.8495853,58.4347826 C30.7256604,58.4347826 26.4347826,63.9557561 26.4347826,70.766222 C26.4347826,77.576688 29.8205196,83.0976614 33.8495853,83.0976614 Z" id="Oval" fill="#CDFFE6"></path>
                        <path d="M90.6941318,96.7246741 L112.35483,64.7839721 C113.216473,63.5132308 112.34601,61.7641799 110.844888,61.7510677 L47.7944599,61.2173913 C46.293338,61.2049169 45.395311,62.9391453 46.2365567,64.2247091 L67.3889798,96.5274213 C72.9469347,105.014993 85.0027684,105.11704 90.6941318,96.7246741" id="Fill-165" fill="#35C733"></path>
                        <path d="M111.316398,89.6847032 C105.05373,89.6847032 106.460656,50.8684228 111.316398,50.8684228 C113.056383,50.8684228 115.284556,49.0573378 117.715877,50.9493755 C122.069595,54.3374114 126.579099,63.1837212 126.579099,69.9436182 C126.579099,77.3492549 122.359373,85.3521055 117.54181,88.5126587 C115.506115,89.8481723 113.176664,89.6847032 111.316398,89.6847032 Z" id="Oval" fill="#0096FF"></path>
                        <path d="M120.953894,81.7063571 C116.924829,81.7063571 117.829969,57.0434783 120.953894,57.0434783 C124.077819,57.0434783 128.368697,62.5644517 128.368697,69.3749177 C128.368697,76.1853836 124.98296,81.7063571 120.953894,81.7063571 Z" id="Oval" fill="#CDFFE6"></path>
                        <path d="M60.5500863,70.9415453 C60.5014313,77.0308682 55.6279127,81.9266772 49.665271,81.876447 C43.7020946,81.8267627 38.9077072,76.8501486 38.9568969,70.7613717 C39.0055519,64.6720488 43.8790705,59.7762398 49.8417122,59.82647 C55.8048886,59.8761543 60.5987413,64.8527685 60.5500863,70.9415453" id="Fill-168" fill="#FFFFFF"></path>
                        <path d="M53.0143613,73.1796845 C53.0043807,74.3974678 52.0297691,75.3762803 50.8375792,75.3665992 C49.6448902,75.3564085 48.6857487,74.361291 48.6957294,73.1435076 C48.70571,71.9257243 49.6803216,70.9469118 50.8725115,70.9565929 C52.0652005,70.9667836 53.024342,71.9619011 53.0143613,73.1796845" id="Fill-171" fill="#03324B"></path>
                        <path d="M117.593565,70.9415453 C117.544911,77.0308682 112.671511,81.9266772 106.709015,81.876447 C100.745984,81.8267627 95.9517133,76.8501486 96.0003671,70.7608257 C96.0495555,64.6720488 100.922955,59.7762398 106.885452,59.82647 C112.848483,59.8761543 117.642218,64.8527685 117.593565,70.9415453" id="Fill-174" fill="#FFFFFF"></path>
                        <path d="M109.912969,73.0603585 C109.903323,74.2130388 108.961405,75.140006 107.809207,75.1303602 C106.656526,75.1207143 105.729559,74.178796 105.739205,73.0261157 C105.748369,71.8739177 106.690769,70.9469505 107.842967,70.9565963 C108.995648,70.9657599 109.922615,71.9076782 109.912969,73.0603585" id="Fill-177" fill="#03324B"></path>
                        <path d="M43.1304348,53.6554616 C54.3053631,43.8561684 66.0631846,38.9565217 78.4038992,38.9565217 C90.7446137,38.9565217 102.884514,43.6340027 114.823599,52.9889646" id="Path-4" stroke="#0096FF" stroke-width="6.95652174"></path>
                        <path d="M72.3478261,76.5217391 C73.8411328,79.89073 75.4793495,81.5752254 77.2624763,81.5752254 C79.0456031,81.5752254 80.9253669,79.89073 82.9017678,76.5217391" id="Path-21" stroke="#00324B" stroke-width="2.08695652"></path>
                        <path d="M75.2781593,107.130435 C74.7824575,109.307314 75.5342821,111.408331 77.5336329,113.433487 C79.5329837,115.458642 92.1264913,116.262261 115.314156,115.844341 L120.347826,111.556713" id="Path-20" stroke="#00324B" stroke-width="2.08695652" transform="translate(97.739130, 111.541006) scale(-1, 1) translate(-97.739130, -111.541006) "></path>
                        <g id="phone" transform="translate(87.178333, 117.442449) rotate(2.000000) translate(-87.178333, -117.442449) translate(68.178333, 90.442449)">
                            <path d="M24.6432538,53.827854 L4.36852013,50.5491426 C1.56846904,50.0963349 -0.335600463,47.4501584 0.115431975,44.639959 L6.56545655,4.438665 C7.01648899,1.62759315 9.65142223,-0.283970618 12.4514733,0.167964585 L32.726207,3.44667596 C35.5262581,3.89948362 37.4303276,6.54566021 36.9792952,9.3558596 L30.5292706,49.5571536 C30.0782381,52.3682254 27.4433049,54.2806617 24.6432538,53.827854" id="Fill-30" fill="#FFFFFF"></path>
                            <path d="M20.3515802,15.8987995 L17.8948004,14.4121246 C17.758361,15.2671372 17.9999544,16.2713407 18.2884762,16.6499891 L14.8366441,16.092486 C14.8740129,17.9804933 16.9718786,19.8667557 19.2904808,20.2419142 L17.9982164,21.182428 C17.7096946,21.3926913 17.8165867,21.8498613 18.1694175,21.9065713 C18.2737025,21.9231481 18.3805945,21.8978467 18.4674987,21.8359019 L20.4019846,20.4268761 C20.410675,20.4329834 20.4115441,20.4329834 20.4211035,20.4390906 L20.2012361,21.8132179 C20.1656054,22.0322058 20.305521,22.2477039 20.5227814,22.2869647 C20.7435178,22.3270979 20.9529568,22.176162 20.9885875,21.9536843 L21.2136692,20.5525106 L22.0036277,20.67989 L21.7811532,22.0688492 C21.7455225,22.2878371 21.8863072,22.5033352 22.1035675,22.542596 C22.324304,22.5827292 22.5337429,22.4317933 22.5693736,22.2093156 L22.7944553,20.8081419 C23.1151316,18.8119494 22.1791741,17.0225303 20.3515802,15.8987995" id="Fill-32" fill="#03324B"></path>
                            <path d="M24.3912318,17.6369178 L23.890664,17.5557789 C23.9810443,16.9921686 24.2017808,16.4625843 24.5120286,15.9931999 C24.6545513,15.7768293 24.5241951,15.4845546 24.269566,15.4426765 C24.141817,15.4226098 24.0140679,15.4732126 23.9332471,15.5744182 C23.5048097,16.1101097 23.217157,16.7452619 23.1076578,17.4292719 C22.8764928,18.8731962 23.5413094,20.3110132 24.7875147,21.0613303 L24.9456802,21.1555562 L25.3054633,18.9115845 C25.4027959,18.3052236 24.9934775,17.7337611 24.3912318,17.6369178" id="Fill-34" fill="#03324B"></path>
                        </g>
                        <path d="M79.7158123,121.043478 C79.2734938,123.220357 79.9443526,125.321374 81.7283887,127.34653 C83.5124249,129.371686 94.7497086,130.175304 115.44024,129.757385 L119.931823,125.469757" id="Path-20" stroke="#00324B" stroke-width="2.08695652" transform="translate(99.757910, 125.454049) scale(-1, 1) translate(-99.757910, -125.454049) "></path>
                        <path d="M32.1463654,121.043478 C31.6552242,123.220357 32.4001319,125.321374 34.3810885,127.34653 C36.3620451,129.371686 48.8396915,130.175304 71.8140277,129.757385 L76.8013879,125.469757" id="Path-20" stroke="#00324B" stroke-width="2.08695652"></path>
                        <path d="M30.7564201,107.130435 C30.2607184,109.307314 31.0125429,111.408331 33.0118938,113.433487 C35.0112446,115.458642 47.6047522,116.262261 70.7924166,115.844341 L75.826087,111.556713" id="Path-20" stroke="#00324B" stroke-width="2.08695652"></path>
                    </g>
                </g>
            </g>
        </g>
    </g>
</svg>