<?xml version="1.0" encoding="UTF-8"?>
<svg width="252px" height="253px" viewBox="0 0 252 253" version="1.1" xmlns="http://www.w3.org/2000/svg" xmlns:xlink="http://www.w3.org/1999/xlink">
    <!-- Generator: Sketch 58 (84663) - https://sketch.com -->
    <title>adventure__journey</title>
    <desc>Created with Sketch.</desc>
    <defs>
        <circle id="path-1" cx="126" cy="126.777578" r="126"></circle>
    </defs>
    <g id="Round-3" stroke="none" stroke-width="1" fill="none" fill-rule="evenodd">
        <g id="Home---Desktop" transform="translate(-1042.000000, -1182.000000)">
            <g id="Hero" transform="translate(-27.000000, 198.000000)">
                <g id="Journey" transform="translate(127.000000, 822.000000)">
                    <g id="Col-3" transform="translate(896.000000, 162.000000)">
                        <g id="Group-3-Copy" transform="translate(46.000000, 0.000000)">
                            <mask id="mask-2" fill="white">
                                <use xlink:href="#path-1"></use>
                            </mask>
                            <use id="Mask" fill-opacity="0" fill="#D0021B" xlink:href="#path-1"></use>
                            <circle id="Oval-16" fill="#4CE8E3" mask="url(#mask-2)" cx="126" cy="126.777578" r="126"></circle>
                            <g id="ghop" mask="url(#mask-2)">
                                <g transform="translate(40.000000, 27.777578)">
                                    <path d="M144.274039,256.687938 L101.578049,127.134049 C94.5403748,132.611227 88.6648698,139.309742 84.1385891,146.801807 C79.6123083,139.309742 73.7362259,132.611227 66.6979748,127.134049 L24.0025613,256.687938 C48.4184976,256.190592 71.2987314,243.165702 84.1385891,221.914902 C96.9784467,243.165702 119.858103,256.190592 144.274039,256.687938" id="Fill-4" fill="#35C733"></path>
                                    <path d="M56.6067606,226.867928 L42.5212795,176.732725 C29.9197329,131.879927 50.6254179,80.7149428 83.4528096,78.2562988 C84.310573,78.1921439 85.1742847,78.1595947 86.0427552,78.1595947 L86.0431518,78.1595947 C86.9112257,78.1595947 87.7749375,78.1921439 88.6327008,78.2562988 C121.485076,80.7168297 142.176088,131.971914 129.498005,176.817164 L115.348281,226.867928 L56.6067606,226.867928 Z" id="Fill-23" fill="#C3F6A2"></path>
                                    <path d="M56.277178,60.2966193 C51.3776561,66.6647565 48.4323911,74.6234364 48.4323911,83.2892895 C48.4323911,104.114701 65.2652529,120.997364 86.0292324,120.997364 C106.793212,120.997364 123.626074,104.114701 123.626074,83.2892895 C123.626074,74.6234364 120.680809,66.6647565 115.781287,60.2966193 L56.277178,60.2966193 Z" id="Fill-24" fill="#35C733"></path>
                                    <path d="M67.8727661,72.4368875 C67.8727661,80.2591444 61.5503802,86.6002356 53.7511979,86.6002356 C45.9520156,86.6002356 39.6292331,80.2591444 39.6292331,72.4368875 C39.6292331,64.6146307 45.9520156,58.2735395 53.7511979,58.2735395 C61.5503802,58.2735395 67.8727661,64.6146307 67.8727661,72.4368875" id="Fill-25" fill="#FFFFFF"></path>
                                    <path d="M56.7771633,72.4368875 C56.7771633,74.1129434 55.4221113,75.4720043 53.7509996,75.4720043 C52.0798879,75.4720043 50.724836,74.1129434 50.724836,72.4368875 C50.724836,70.7608317 52.0798879,69.4017708 53.7509996,69.4017708 C55.4221113,69.4017708 56.7771633,70.7608317 56.7771633,72.4368875" id="Fill-26" fill="#03324B"></path>
                                    <path d="M132.429271,72.4368875 C132.429271,80.2591444 126.106886,86.6002356 118.307703,86.6002356 C110.508124,86.6002356 104.185738,80.2591444 104.185738,72.4368875 C104.185738,64.6146307 110.508124,58.2735395 118.307703,58.2735395 C126.106886,58.2735395 132.429271,64.6146307 132.429271,72.4368875" id="Fill-27" fill="#FFFFFF"></path>
                                    <path d="M121.33347,72.4368875 C121.33347,74.1129434 119.978815,75.4720043 118.307703,75.4720043 C116.636195,75.4720043 115.28154,74.1129434 115.28154,72.4368875 C115.28154,70.7608317 116.636195,69.4017708 118.307703,69.4017708 C119.978815,69.4017708 121.33347,70.7608317 121.33347,72.4368875" id="Fill-28" fill="#03324B"></path>
                                    <path d="M86.0293911,88.3423187 C77.82175,88.3423187 71.1444412,81.6456523 71.1444412,73.4137283 L72.6704113,73.4137283 C72.6704113,80.8008629 78.6636509,86.8114362 86.0293911,86.8114362 C93.3951313,86.8114362 99.3879743,80.8008629 99.3879743,73.4137283 L100.913944,73.4137283 C100.913944,81.6456523 94.2366356,88.3423187 86.0293911,88.3423187" id="Fill-29" fill="#03324B"></path>
                                    <g id="map" stroke-width="1" fill="none" transform="translate(33.228023, 122.567015)">
                                        <polygon id="Fill-32" fill="#FFFFFF" points="37.7652109 89.9475745 9.9475983e-14 78.9583786 9.9475983e-14 0.826491145 37.7652109 11.8152885"></polygon>
                                        <polygon id="Fill-34" fill="#CCCCCC" points="75.5300257 78.132286 37.7652109 89.9476143 37.7652109 11.8153283 75.5300257 5.68434189e-14"></polygon>
                                        <polygon id="Fill-36" fill="#F2F2F2" points="113.295078 90.5669546 75.5298673 78.1323258 75.5298673 3.9852025e-05 113.295078 12.4346687"></polygon>
                                        <g id="route" transform="translate(10.439386, 23.524172)">
                                            <polygon id="Fill-42" fill="#31F396" points="46.4189347 36.8311219 27.1404704 36.8311219 27.02601 36.6852635 1.75164073 4.37563278 2.35047872 3.90099516 27.5103875 36.0643689 45.9975302 36.0643689 64.8530057 5.86131627 83.7884848 1.6896063 83.9516602 2.43842585 65.32867 6.54159033"></polygon>
                                            <path d="M4.10196102,4.13807486 C4.10196102,5.27784277 3.18350513,6.20161271 2.05078248,6.20161271 C0.918059828,6.20161271 -4.26325641e-14,5.27784277 -4.26325641e-14,4.13807486 C-4.26325641e-14,2.99830695 0.918059828,2.07413849 2.05078248,2.07413849 C3.18350513,2.07413849 4.10196102,2.99830695 4.10196102,4.13807486" id="Fill-44" fill="#FF4A33"></path>
                                            <path d="M48.2592129,36.4473867 C48.2592129,37.5871546 47.3411531,38.5113231 46.2080344,38.5113231 C45.0753118,38.5113231 44.1572519,37.5871546 44.1572519,36.4473867 C44.1572519,35.3076188 45.0753118,34.3838489 46.2080344,34.3838489 C47.3411531,34.3838489 48.2592129,35.3076188 48.2592129,36.4473867" id="Fill-46" fill="#FF4A33"></path>
                                            <path d="M85.9209738,2.06393637 C85.9209738,3.20370428 85.0025179,4.12747422 83.8697952,4.12747422 C82.7370726,4.12747422 81.8190127,3.20370428 81.8190127,2.06393637 C81.8190127,0.924168458 82.7370726,-2.84217094e-14 83.8697952,-2.84217094e-14 C85.0025179,-2.84217094e-14 85.9209738,0.924168458 85.9209738,2.06393637" id="Fill-48" fill="#FF4A33"></path>
                                        </g>
                                    </g>
                                    <path d="M159.810888,170.252952 L126.74212,170.252952 L124.321816,163.947166 L125.743264,163.394817 L127.787314,168.719047 L159.810888,168.719047 C165.232115,168.719047 169.643,164.281524 169.643,158.825782 C169.643,153.370438 165.232115,148.932517 159.810888,148.932517 L146.52318,148.932517 L146.52318,147.398612 L159.810888,147.398612 C166.072944,147.398612 171.167423,152.524778 171.167423,158.825782 C171.167423,165.126786 166.072944,170.252952 159.810888,170.252952" id="Fill-38" fill="#03324B"></path>
                                    <path d="M158.024507,140.780187 L122.027294,140.780187 L119.60699,134.4748 L121.028438,133.922052 L123.072092,139.246283 L158.024507,139.246283 C163.445733,139.246283 167.856619,134.80876 167.856619,129.353018 C167.856619,123.897674 163.445733,119.459752 158.024507,119.459752 L128.721843,119.459752 L128.721843,117.925848 L158.024507,117.925848 C164.286562,117.925848 169.381042,123.052014 169.381042,129.353018 C169.381042,135.654021 164.286562,140.780187 158.024507,140.780187" id="Fill-40" fill="#03324B"></path>
                                    <path d="M44.4253032,170.252952 L11.3561387,170.252952 C5.09408348,170.252952 0,165.126786 0,158.825782 C0,152.524778 5.09408348,147.398612 11.3561387,147.398612 L33.2283794,147.398612 L33.2283794,148.932517 L11.3561387,148.932517 C5.93451616,148.932517 1.52402684,153.370438 1.52402684,158.825782 C1.52402684,164.281524 5.93451616,168.719047 11.3561387,168.719047 L43.3805052,168.719047 L45.4241587,163.394817 L46.8456068,163.947166 L44.4253032,170.252952 Z" id="Fill-50" fill="#03324B"></path>
                                    <path d="M50.9263523,140.780187 L14.9291393,140.780187 C8.66668809,140.780187 3.57260461,135.654021 3.57260461,129.353018 C3.57260461,123.052014 8.66668809,117.925848 14.9291393,117.925848 L44.231803,117.925848 L44.231803,119.459752 L14.9291393,119.459752 C9.50751683,119.459752 5.09663145,123.897674 5.09663145,129.353018 C5.09663145,134.80876 9.50751683,139.246283 14.9291393,139.246283 L49.8811583,139.246283 L51.9252078,133.922052 L53.3470519,134.4748 L50.9263523,140.780187 Z" id="Fill-52" fill="#03324B"></path>
                                    <path d="M80.4105949,60.134713 L78.8865681,60.134713 L78.8865681,5.5992095 C78.8865681,3.35713458 77.0742118,1.53390444 74.8463919,1.53390444 C72.618572,1.53390444 70.8058197,3.35713458 70.8058197,5.5992095 L69.2813968,5.5992095 C69.2813968,2.51187313 71.7777433,0 74.8463919,0 C77.9146445,0 80.4105949,2.51187313 80.4105949,5.5992095 L80.4105949,60.134713 Z" id="Fill-56" fill="#03324B"></path>
                                    <path d="M92.7156066,60.134713 L91.1915798,60.134713 L91.1915798,5.5992095 C91.1915798,2.51187313 93.6875302,0 96.7557828,0 C99.8244314,0 102.320382,2.51187313 102.320382,5.5992095 L100.796355,5.5992095 C100.796355,3.35713458 98.9836027,1.53390444 96.7557828,1.53390444 C94.5279629,1.53390444 92.7156066,3.35713458 92.7156066,5.5992095 L92.7156066,60.134713 Z" id="Fill-58" fill="#03324B"></path>
                                </g>
                            </g>
                        </g>
                    </g>
                </g>
            </g>
        </g>
    </g>
</svg>