<?xml version="1.0" encoding="UTF-8"?>
<svg width="28px" height="26px" viewBox="0 0 28 26" version="1.1" xmlns="http://www.w3.org/2000/svg" xmlns:xlink="http://www.w3.org/1999/xlink">
    <!-- Generator: Sketch 49.1 (51147) - http://www.bohemiancoding.com/sketch -->
    <title>“</title>
    <desc>Created with Sketch.</desc>
    <defs></defs>
    <g id="Home" stroke="none" stroke-width="1" fill="none" fill-rule="evenodd">
        <g id="home---web" transform="translate(-567.000000, -3078.000000)" fill="#45C14E">
            <g id="Group-22-Copy" transform="translate(-380.000000, 2897.000000)">
                <g id="testimonials">
                    <g id="quote-1" transform="translate(740.000000, 135.000000)">
                        <g id="Group-19" transform="translate(40.000000, 32.000000)">
                            <path d="M176.36,14.592 L178.568,18.816 C173.768,20.928 172.808,23.04 172.808,27.744 L172.808,28.032 L178.952,28.032 L178.952,39.36 L167.72,39.36 L167.72,28.704 C167.72,21.024 169.736,17.376 176.36,14.592 Z M192.104,14.592 L194.312,18.816 C189.512,20.928 188.552,23.04 188.552,27.744 L188.552,28.032 L194.696,28.032 L194.696,39.36 L183.464,39.36 L183.464,28.704 C183.464,21.024 185.48,17.376 192.104,14.592 Z" id="“"></path>
                        </g>
                    </g>
                </g>
            </g>
        </g>
    </g>
</svg>